<svg xmlns="http://www.w3.org/2000/svg" width="100" height="80" viewBox="0 0 100 80"><path d="M37.906,15a6.029,6.029,0,0,0-5.992,6v6H5.947A6.029,6.029,0,0,0-.045,33V44.373a2,2,0,0,0,0,1.187V89a6.029,6.029,0,0,0,5.992,6H93.833a6.029,6.029,0,0,0,5.992-6V45.373a2.089,2.089,0,0,0,0-.813V33a6.029,6.029,0,0,0-5.992-6H67.867V21a6.029,6.029,0,0,0-5.992-6Zm0,4H61.874a2,2,0,0,1,2,2v6H35.908V21A2,2,0,0,1,37.906,19ZM5.947,31H93.833a2,2,0,0,1,2,2V43h-7.99a4,4,0,0,0-3.995-4h-7.99a4,4,0,0,0-3.995,4H27.918a4,4,0,0,0-3.995-4h-7.99a4,4,0,0,0-3.995,4H3.95V33a2,2,0,0,1,2-2Zm9.987,12h7.99v1.06a2,2,0,0,0,0,1.753V47h-7.99V45.373a2.089,2.089,0,0,0,0-.813Zm59.922,0h7.99v1.06a2,2,0,0,0,0,1.753V47h-7.99V45.373a2.089,2.089,0,0,0,0-.813ZM3.95,47h7.99a4,4,0,0,0,3.995,4h7.99a4,4,0,0,0,3.995-4H71.861a4,4,0,0,0,3.995,4h7.99a4,4,0,0,0,3.995-4h7.99V89a2,2,0,0,1-2,2H5.947a2,2,0,0,1-2-2Z" transform="translate(0.135 -15)"/></svg>