<svg xmlns="http://www.w3.org/2000/svg" width="77.212" height="77.242" viewBox="0 0 77.212 77.242"><path d="M77.7,5.988a11.488,11.488,0,0,0-2.616.632,39.261,39.261,0,0,0-6.921,3.455l-.945-1a1.632,1.632,0,0,0-.732-.419A13.775,13.775,0,0,0,64.862,8.4a16.167,16.167,0,0,0-4.249.106c-3.449.537-8.05,2.286-12.735,6.988a54.434,54.434,0,0,0-9.012,11.617c-1.783,3.1-2.762,5.294-3.723,6.345a3.159,3.159,0,0,1-3.511.783,1.68,1.68,0,0,0-1.314,3.092s4.3,1.677,7.268-1.571c1.621-1.767,2.5-4.042,4.193-6.971a50.269,50.269,0,0,1,8.436-10.9c4.221-4.21,8.095-5.641,10.9-6.077a8.755,8.755,0,0,1,4.087.1l.157.162A262.557,262.557,0,0,0,43,31.984C30.313,44.669,15.851,62.016,15.851,62.016a1.677,1.677,0,0,0-.369,1.118A48.972,48.972,0,0,0,9.612,74.4a22.261,22.261,0,0,0-.99,3.706l-2.236,2.2A1.7,1.7,0,0,0,8.8,82.717L11,80.481a22.26,22.26,0,0,0,3.723-1,48.44,48.44,0,0,0,11.321-5.87,1.677,1.677,0,0,0,1.045-.369S44.418,58.784,57.12,46.1A251.123,251.123,0,0,0,78.3,22.061a1.745,1.745,0,0,0,.257-.313l.056-.056.05-.05a1.487,1.487,0,0,0,.157-.313,40.872,40.872,0,0,0,3.673-7.268A9.666,9.666,0,0,0,83.1,10.55,4.875,4.875,0,0,0,81.79,7.3a4.875,4.875,0,0,0-3.254-1.308,6,6,0,0,0-.839,0Zm.738,3.354a1.263,1.263,0,0,1,1.308,1.308,6.663,6.663,0,0,1-.419,2.236,33.542,33.542,0,0,1-2.516,5.031l-5.658-5.641a33.018,33.018,0,0,1,5.031-2.516A6.613,6.613,0,0,1,78.436,9.343ZM68.267,14.167l6.658,6.709A235.913,235.913,0,0,1,54.744,43.724c-11.483,11.46-26.432,24.056-28.875,26.1l-6.608-6.6c2.046-2.449,14.641-17.4,26.1-28.88a230.269,230.269,0,0,1,22.9-20.176ZM17.427,65.32l6.345,6.34A46.4,46.4,0,0,1,13.81,76.8a8.543,8.543,0,0,1-2.041.52,8.542,8.542,0,0,1,.52-2.04,46.255,46.255,0,0,1,5.138-9.957Z" transform="translate(-5.887 -5.974)"/></svg>