<svg xmlns="http://www.w3.org/2000/svg" width="76" height="80" viewBox="0 0 76 80"><g transform="translate(0 0.04)"><path d="M64.005.221a3.325,3.325,0,0,1,2.407,3.157V6.622h9.612A2.971,2.971,0,0,1,78.2,7.5a3.035,3.035,0,0,1,.88,2.194V49.9a16.25,16.25,0,0,0-2.111-1.563,1.894,1.894,0,0,1-1.056-2.027c.037-7.083,0-14.166,0-21.249v-.8H9.439V73.824H49.305a1.085,1.085,0,0,1,1.056.587c.554.875,1.182,1.7,1.842,2.624H9.972c-1.858,0-3.13-.635-3.732-2.453V9.054A3.357,3.357,0,0,1,9.935,6.6c2.739.08,5.479,0,8.218,0h.728V3.352A3.3,3.3,0,0,1,21.288.2h4.687a.691.691,0,0,0,.2.133A3.155,3.155,0,0,1,28.435,3.7V6.59h28.5V3.4A3.306,3.306,0,0,1,59.345.243ZM75.876,9.87H66.412v3.243a3.131,3.131,0,0,1-3.061,3.109H59.994a3.077,3.077,0,0,1-2.951-2.261,5.587,5.587,0,0,1-.127-1.328c0-.928,0-1.856,0-2.763h-28.5V13.1a3.12,3.12,0,0,1-3.1,3.136h-3.1a3.1,3.1,0,0,1-2.4-.915,3.165,3.165,0,0,1-.906-2.423V9.87H9.449V20.99H75.876ZM25.2,3.469H22.117v9.5H25.21Zm34.905,9.51H63.2V3.453H60.11Z" transform="translate(-6.24 -0.24)"/><path d="M104.468,122.009l-1.725-.349a15.878,15.878,0,1,1,19.128-17.535,2.116,2.116,0,0,0,.111.355v3.3a1.588,1.588,0,0,0-.106.286,15.878,15.878,0,0,1-12.523,13.624c-.529.116-1.059.212-1.588.318ZM93.433,106.131a12.631,12.631,0,1,0,0-.021Z" transform="translate(-45.982 -42.049)"/><path d="M30.29,93.761V57.31H77.872V71.558H66.757c0,1.059.032,2.117,0,3.107a1.371,1.371,0,0,1-.4.831c-.873.82-1.789,1.588-2.742,2.424V71.606H55.722v7.886H62.38c-.582,1.059-1.111,2.032-1.678,2.985a.736.736,0,0,1-.529.191H55.7v7.939h3.1l.3,3.176Zm3.176-33.286v7.881h7.86V60.475ZM44.58,68.34h7.876V60.507H44.58Zm18.964,0V60.5H55.722v7.87ZM74.7,60.512h-7.87v7.823H74.7ZM33.487,71.627v7.828h7.854V71.6Zm11.115,0v7.828H52.44v-7.87Zm-3.244,11.1H33.471v7.844h7.886Zm3.25-.032v7.886h7.844V82.7Z" transform="translate(-17.65 -26.71)"/><path d="M113.5,110.255c.27,0,.5.037.725.037h5.335a1.593,1.593,0,1,1-.011,3.176h-6.039c0,.265-.037.487-.042.709v5.462a1.556,1.556,0,0,1-2.165,1.535,1.434,1.434,0,0,1-1.006-1.519q0-2.66,0-5.33v-.82c-.281,0-.5-.032-.725-.037h-5.335c-1.127,0-1.768-.6-1.752-1.625s.651-1.545,1.762-1.551h6.013c0-.291.032-.529.037-.741v-5.335a1.527,1.527,0,0,1,1.588-1.736,1.505,1.505,0,0,1,1.588,1.715v5.335C113.472,109.757,113.493,109.985,113.5,110.255Z" transform="translate(-51.747 -47.798)"/></g></svg>