<svg xmlns="http://www.w3.org/2000/svg" width="97" height="80" viewBox="0 0 97 80"><g transform="translate(0 -0.031)"><path d="M151.55,76.58a26.976,26.976,0,0,0,5.007,14.784c3.56,5.073,8.061,7.867,12.673,7.867s9.113-2.794,12.673-7.867A26.976,26.976,0,0,0,186.91,76.58a17.68,17.68,0,1,0-35.36,0Zm17.68-14.61a14.626,14.626,0,0,1,14.61,14.61A24.15,24.15,0,0,1,179.39,89.6c-2.925,4.17-6.628,6.551-10.159,6.551S162,93.759,159.071,89.6a24.15,24.15,0,0,1-4.45-13.019A14.628,14.628,0,0,1,169.23,61.971Z" transform="translate(-120.727 -54.696)"/><path d="M131.453,238.587a1.516,1.516,0,0,0-1.733.3c-3.411,3.425-7.344,5.234-11.375,5.234s-7.964-1.81-11.375-5.234a1.514,1.514,0,0,0-1.733-.3A30.742,30.742,0,0,0,87.82,266.341v.025a1.546,1.546,0,0,0,.5,1.138,44.5,44.5,0,0,0,60.049,0,1.538,1.538,0,0,0,.5-1.138v-.025A30.736,30.736,0,0,0,131.453,238.587Zm-13.107,37.5a41.4,41.4,0,0,1-27.467-10.4,27.672,27.672,0,0,1,14.738-23.858,17.789,17.789,0,0,0,25.46,0,27.674,27.674,0,0,1,14.74,23.858,41.407,41.407,0,0,1-27.471,10.4Z" transform="translate(-69.843 -199.128)"/><path d="M337.554,205.615a26.839,26.839,0,0,0-11.027-9.7,1.537,1.537,0,0,0-1.744.3,13.858,13.858,0,0,1-9.754,4.467,12.212,12.212,0,0,1-5.5-1.343,1.536,1.536,0,1,0-1.376,2.747,15.271,15.271,0,0,0,6.868,1.666,16.511,16.511,0,0,0,11.113-4.594,23.7,23.7,0,0,1,12.585,20.286,36.275,36.275,0,0,1-13.083,7.3,1.535,1.535,0,0,0,.45,3,1.52,1.52,0,0,0,.452-.07,39.3,39.3,0,0,0,14.755-8.411,1.529,1.529,0,0,0,.5-1.136V220.1a26.683,26.683,0,0,0-4.243-14.485Z" transform="translate(-244.798 -164.655)"/><path d="M70.453,73.711a10.776,10.776,0,0,0,4.813-1.175A1.536,1.536,0,0,0,73.9,69.785a7.7,7.7,0,0,1-3.447.856c-2.976,0-6.106-2.029-8.6-5.568a20.642,20.642,0,0,1-3.783-11.109,12.389,12.389,0,0,1,20.982-8.917,1.535,1.535,0,0,0,2.131-2.211A15.459,15.459,0,0,0,55,53.964a23.567,23.567,0,0,0,4.356,12.872C62.459,71.269,66.4,73.711,70.453,73.711Z" transform="translate(-43.741 -38.48)"/><path d="M12.487,225.286a35.889,35.889,0,0,1-9.416-5.936,23.641,23.641,0,0,1,12.548-20.227A16.458,16.458,0,0,0,26.7,203.7a15.24,15.24,0,0,0,6.923-1.695,1.537,1.537,0,0,0-1.376-2.749,12.194,12.194,0,0,1-5.539,1.365,13.813,13.813,0,0,1-9.723-4.454,1.537,1.537,0,0,0-1.744-.3A26.714,26.714,0,0,0,0,220.009v.02a1.533,1.533,0,0,0,.5,1.134A38.973,38.973,0,0,0,11.277,228.1a1.561,1.561,0,0,0,.614.125,1.535,1.535,0,0,0,.614-2.946Z" transform="translate(0 -164.589)"/><path d="M69.4,347.394a1.534,1.534,0,1,0,2.835,0A1.545,1.545,0,0,0,69.4,347.394Z" transform="translate(-55.097 -284.717)"/><path d="M83.66,350.893C83.7,350.983,83.623,350.8,83.66,350.893Z" transform="translate(-66.526 -288.185)"/><path d="M293.239,45.047a12.389,12.389,0,0,1,20.988,8.917,20.6,20.6,0,0,1-3.8,11.107c-2.481,3.539-5.613,5.568-8.6,5.568a7.705,7.705,0,0,1-3.447-.856,1.536,1.536,0,0,0-1.367,2.751,10.775,10.775,0,0,0,4.815,1.175c4.049,0,7.983-2.44,11.1-6.874a23.488,23.488,0,0,0,4.358-12.872,15.459,15.459,0,0,0-26.184-11.128,1.536,1.536,0,1,0,2.133,2.211Z" transform="translate(-231.542 -38.48)"/></g></svg>