<svg xmlns="http://www.w3.org/2000/svg" width="80" height="80" viewBox="0 0 80 80"><path d="M54.5,23.88H30.661a6.91,6.91,0,0,0-6.9,6.9V54.626a6.911,6.911,0,0,0,6.9,6.9H54.5a6.911,6.911,0,0,0,6.9-6.9V30.782A6.91,6.91,0,0,0,54.5,23.88ZM42.583,55.1A12.394,12.394,0,1,1,54.977,42.7,12.408,12.408,0,0,1,42.583,55.1ZM55.376,32.873a2.932,2.932,0,1,1,2.932-2.932A2.936,2.936,0,0,1,55.376,32.873Z" transform="translate(-2.583 -2.596)" fill="#6a453b"/><path d="M44.006,36.971a7.157,7.157,0,1,0,7.156,7.155A7.166,7.166,0,0,0,44.006,36.971Z" transform="translate(-4.006 -4.019)" fill="#6a453b"/><path d="M40,0A40,40,0,1,0,80,40,40,40,0,0,0,40,0ZM64.061,52.03A12.152,12.152,0,0,1,51.922,64.169H28.078A12.153,12.153,0,0,1,15.939,52.03V28.186A12.153,12.153,0,0,1,28.078,16.047H51.922A12.153,12.153,0,0,1,64.061,28.186Z" fill="#6a453b"/></svg>