<svg xmlns="http://www.w3.org/2000/svg" width="90.14" height="34" viewBox="0 0 90.14 34"><g transform="translate(-215 -25)"><g transform="translate(215 28.389)"><g transform="translate(0 0)"><path d="M41.718,4.358C39,12.664,32.294,15.628,24.528,17.193c-.5.1-.989.286-1.481.431l.063.446c1.056,0,2.111-.051,3.17.027.374.027.727.374,1.089.573-.335.181-.669.51-1.007.516q-4.071.063-8.142,0c-.341,0-.679-.329-1.019-.5a3.375,3.375,0,0,1,1.083-.585,10.667,10.667,0,0,1,2.28-.015,1.459,1.459,0,0,0,1.7-1.628,10.988,10.988,0,0,1,2.883-8.248c2.548-2.675,5.866-3.812,9.379-4.445.971-.175,1.538-.3,2.928-.47a16.946,16.946,0,0,1,4.49-.015,9.35,9.35,0,0,1-.226,1.083ZM23.473,14.784c.181-.069.3-.078.347-.139.256-.28.495-.576.739-.866A27.274,27.274,0,0,1,37.125,5.221a3.668,3.668,0,0,1,1.366.118,5.932,5.932,0,0,1-1.022.932C34.821,7.73,32,8.936,29.528,10.637c-1.981,1.372-3.546,3.341-5.3,5.042l.3.344A26.629,26.629,0,0,0,34.347,12.3a20.1,20.1,0,0,1-2.6-.4,4.027,4.027,0,0,1-1.119-.817A11.334,11.334,0,0,1,32,10.842c1.508-.081,3.317.389,4.424-.3,2.111-1.3,3.266-3.592,3.978-6.2-4.4.157-8.537.6-12.235,2.871A9.381,9.381,0,0,0,23.473,14.784Z" transform="translate(-13.14 -3.14)" fill="#f2ba02"/><path d="M12.737,70.285c-1.713,0-3.423.015-5.127,0-2.455-.03-3.818-1.363-3.851-3.77-.021-1.565-.036-3.136,0-4.7a3.387,3.387,0,0,1,3.522-3.507q5.627-.063,11.258,0a3.354,3.354,0,0,1,3.474,3.4c.06,1.707.054,3.42,0,5.127a3.369,3.369,0,0,1-3.438,3.438c-1.945.054-3.9,0-5.841,0Zm.1-1.143c1.852,0,3.7.03,5.552,0a2.283,2.283,0,0,0,2.494-2.479c.039-1.592.033-3.133,0-4.7a2.288,2.288,0,0,0-2.452-2.515q-5.567-.051-11.107,0a2.246,2.246,0,0,0-2.413,2.413c-.045,1.565-.033,3.133,0,4.7.027,1.749.878,2.572,2.666,2.594s3.5-.006,5.259-.009Z" transform="translate(-3.738 -41.648)" fill="#f2ba02"/></g></g><g transform="translate(255.191 26)"><text transform="translate(-0.05 12)" fill="#fff" font-size="14" font-family="BloggerSans-Bold, Blogger Sans" font-weight="700" letter-spacing="0.06em"><tspan x="0" y="0">PISHEM</tspan></text><text transform="translate(16.95 30)" fill="#fff" font-size="12" font-family="BloggerSans, Blogger Sans" letter-spacing="0.06em"><tspan x="0" y="0">pro</tspan></text><circle cx="1.5" cy="1.5" r="1.5" transform="translate(23.95 16)" fill="#fff"/></g></g></svg>