<svg xmlns="http://www.w3.org/2000/svg" width="52" height="60" viewBox="0 0 52 60"><g transform="translate(-0.5 0.001)"><path d="M51.925,44.6l-2.06-3.355a1.116,1.116,0,0,0-1.567-.363,1.2,1.2,0,0,0-.351,1.617l2.061,3.355a1.558,1.558,0,0,1-.209,1.887,1.437,1.437,0,0,1-1.161.43,1.457,1.457,0,0,1-1.068-.637L38.686,34.5l-3.521-8.667V24.813a1.136,1.136,0,1,0-2.272,0V40.43H20.1V24.813a1.136,1.136,0,1,0-2.272,0v1.03L14.315,34.5,5.432,47.532a1.456,1.456,0,0,1-1.068.636,1.437,1.437,0,0,1-1.161-.43,1.558,1.558,0,0,1-.209-1.887L10.887,33A1.18,1.18,0,0,0,11,32.745L14.38,22.389a8.7,8.7,0,0,1,8.226-6.1h7.788a8.7,8.7,0,0,1,8.226,6.1L42,32.745a1.178,1.178,0,0,0,.117.254l1.542,2.512a1.127,1.127,0,0,0,.961.545,1.106,1.106,0,0,0,.607-.182,1.194,1.194,0,0,0,.351-1.617l-1.469-2.392L40.773,21.641a11.021,11.021,0,0,0-9.122-7.622,7.474,7.474,0,0,0,2-5.108V7.376a7.153,7.153,0,1,0-14.3,0V8.912a7.472,7.472,0,0,0,2,5.108,11.022,11.022,0,0,0-9.123,7.622L8.9,31.864,1.075,44.6a3.971,3.971,0,0,0,.532,4.81,3.687,3.687,0,0,0,2.048,1.065v0a7.245,7.245,0,0,0,.065,5.112A6.85,6.85,0,0,0,10.062,60a6.618,6.618,0,0,0,1.775-.243L26.5,55.684l14.663,4.072A6.616,6.616,0,0,0,42.938,60a6.851,6.851,0,0,0,6.342-4.413,7.247,7.247,0,0,0,.065-5.112v0a3.69,3.69,0,0,0,2.049-1.065,3.97,3.97,0,0,0,.532-4.81ZM21.622,7.376a4.88,4.88,0,1,1,9.756,0V8.912a4.88,4.88,0,1,1-9.756,0ZM36.638,35.522a1.168,1.168,0,0,0,.118.221l6.406,9.4-8-4.208v-9.04Zm-20.395.221a1.166,1.166,0,0,0,.118-.221l1.469-3.615v9.031L9.837,45.143Zm30.93,18.966a4.537,4.537,0,0,1-5.42,2.785L30.263,54.3a4.089,4.089,0,0,0,1.494-3.171c0-.044,0-.087,0-.131l7.1,1.73a1.1,1.1,0,0,0,.262.032,1.144,1.144,0,0,0,1.1-.9,1.174,1.174,0,0,0-.844-1.41l-8.494-2.07a1.1,1.1,0,0,0-.2-.029,4.019,4.019,0,0,0-.407-.385,3.8,3.8,0,0,0-3.327-.763L13.624,50.449a1.174,1.174,0,0,0-.844,1.41,1.135,1.135,0,0,0,1.367.871l13.322-3.246a1.592,1.592,0,0,1,1.4.32,1.715,1.715,0,0,1-.592,2.962l-2.022.562c-.024.005-.047.012-.07.019L11.246,57.493a4.536,4.536,0,0,1-5.42-2.784,4.752,4.752,0,0,1,2.159-5.961l11.357-5.974H33.658l11.357,5.974a4.751,4.751,0,0,1,2.159,5.961Zm0,0" transform="translate(0)"/><path d="M397.039,318.356a1.152,1.152,0,0,0,1.63,0l.043-.042a1.153,1.153,0,0,0-1.628-1.632l-.043.043A1.153,1.153,0,0,0,397.039,318.356Zm0,0" transform="translate(-351.304 -279.25)"/></g></svg>