<svg xmlns="http://www.w3.org/2000/svg" width="15" height="15" viewBox="0 0 15 15"><path d="M-45.742-17.7c1.055-1.037,1.94-1.9,2.818-2.769.987-.98,1.95-1.984,2.967-2.938a2.378,2.378,0,0,1,1-.509c.569-.154.938-.489.781-1.035a1.354,1.354,0,0,0-.832-.8c-.555-.134-.866.277-1.011.829a2.336,2.336,0,0,1-.472,1.011c-1.657,1.7-3.347,3.373-5.028,5.051-.174.174-.365.332-.615.564,1.051-3.505,2.072-6.9,3.113-10.358,1.829-.049,3.759-.066,5.351-1.174l3.613,3.61c-1.127,1.594-1.126,3.528-1.181,5.351Z" transform="translate(46.13 32.705)" fill="#f2ba02"/><path d="M17.961-46.87l-2.276,1.509L11.41-49.644,12.977-52Z" transform="translate(-2.961 52)" fill="#f2ba02"/></svg>