<svg xmlns="http://www.w3.org/2000/svg" width="80" height="80" viewBox="0 0 80 80"><g transform="translate(0.014 -0.027)"><path d="M1.662,78.354a5.663,5.663,0,0,0,4.013,1.674,5.743,5.743,0,0,0,1.875-.313L23.54,74.222a39.243,39.243,0,0,0,17.284,4.049h.063A39.111,39.111,0,1,0,5.8,56.489L.3,72.474a5.659,5.659,0,0,0,1.361,5.88Zm3.126-4.339,5.828-16.937a2.375,2.375,0,0,0-.147-1.875A34.377,34.377,0,1,1,24.824,69.558a2.367,2.367,0,0,0-1.875-.145L6,75.227A.955.955,0,0,1,4.79,74.015Z" transform="translate(0)"/><path d="M235.113,362.75a2.393,2.393,0,1,0,2.393,2.393A2.423,2.423,0,0,0,235.113,362.75Z" transform="translate(-196.378 -306.076)"/><path d="M184.3,127.67a11.919,11.919,0,0,0-11.9,11.907,2.393,2.393,0,1,0,4.785,0,7.12,7.12,0,1,1,7.12,7.12,2.393,2.393,0,0,0-2.393,2.393v9.759a2.393,2.393,0,0,0,4.787,0V151.24a11.907,11.907,0,0,0-2.393-23.57Z" transform="translate(-145.562 -107.825)"/></g></svg>