<svg xmlns="http://www.w3.org/2000/svg" width="59.066" height="60" viewBox="0 0 59.066 60"><g transform="translate(-0.466 0.001)"><path d="M16.586,10.028A2.9,2.9,0,0,0,19.316,12h7.431a2.9,2.9,0,0,0,2.73-1.97A13.675,13.675,0,0,1,32.03,5.583a2.99,2.99,0,0,0,1.014-2.842A2.846,2.846,0,0,0,31.116.559c-3-1-5.663-.66-7.7.967a.959.959,0,0,1-1.22,0C20.163-.1,17.5-.435,14.5.56a2.846,2.846,0,0,0-1.929,2.182,2.99,2.99,0,0,0,1.014,2.842A15.747,15.747,0,0,1,16.586,10.028Zm-2.051-6.9a.85.85,0,0,1,.594-.664A8.3,8.3,0,0,1,17.728,2a5.01,5.01,0,0,1,3.221,1.091,2.959,2.959,0,0,0,3.718,0c1.5-1.2,3.458-1.412,5.82-.63a.85.85,0,0,1,.593.664.974.974,0,0,1-.343.935c-1.528,1.294-2.894,4.576-3.15,5.319a.9.9,0,0,1-.839.622H19.317a.9.9,0,0,1-.839-.622,17.286,17.286,0,0,0-3.6-5.319A.972.972,0,0,1,14.535,3.123Z"/><path d="M31.532,14a1,1,0,0,0-1-1,.977.977,0,0,0-.5.153.968.968,0,0,0-.5-.153h-12a1,1,0,0,0,0,2h12v1h-11a1,1,0,0,0,0,2H30.457a4.949,4.949,0,0,0,6.715-.293,1,1,0,1,0-1.414-1.414,3.069,3.069,0,0,1-4.226.014Z"/><path d="M21.532,26c-6.411,0-14,8.131-14,15a1,1,0,0,0,2,0c0-5.71,6.729-13,12-13a1,1,0,0,0,0-2Z"/><path d="M49.532,32a31.689,31.689,0,0,0-3.5.2,19.791,19.791,0,0,0-5.365-6.3L33.468,21a8.889,8.889,0,0,0-5.246-2H20.445a8.632,8.632,0,0,0-5.3,1.822L8.067,25.977A19.6,19.6,0,0,0,2.516,50.145c1.514,2.985,4.043,6.592,7.5,6.826.271.018.545.028.821.028H30.3A7.978,7.978,0,0,0,43.37,56.13,21.419,21.419,0,0,0,49.532,57c4.809,0,10-1.529,10-4V47.5h-.079a1.753,1.753,0,0,0,.079-.5V35.5C59.532,32.735,53.246,32,49.532,32Zm7.924,3.491a.7.7,0,0,1-.067.065c-.039.031-.086.064-.139.1s-.146.086-.233.13c-.071.036-.145.073-.23.11-.1.047-.229.094-.356.142-.1.038-.205.076-.321.115-.146.048-.314.1-.483.143-.132.037-.262.075-.408.111-.19.047-.4.09-.617.133-.161.033-.314.067-.488.1-.24.042-.508.078-.773.114-.181.025-.35.053-.543.075-.315.036-.662.061-1.008.086-.176.013-.336.031-.52.042-.546.03-1.124.048-1.741.048s-1.195-.018-1.741-.048c-.184-.01-.344-.028-.52-.042-.346-.026-.693-.051-1.008-.086-.193-.022-.362-.05-.543-.075-.265-.036-.533-.072-.773-.114-.174-.031-.327-.065-.488-.1-.213-.044-.427-.087-.617-.133-.146-.036-.275-.073-.408-.111-.169-.047-.336-.1-.483-.143-.116-.038-.219-.077-.321-.115-.127-.048-.251-.1-.356-.142-.085-.037-.159-.074-.23-.11-.087-.045-.167-.089-.233-.13a1.5,1.5,0,0,1-.139-.1.6.6,0,0,1-.062-.06c.012-.01.02-.02.034-.031a1.621,1.621,0,0,1,.142-.1,3.159,3.159,0,0,1,.3-.169c.065-.033.129-.065.205-.1s.17-.07.261-.106c.108-.042.226-.084.351-.126.09-.03.177-.061.277-.091.224-.068.469-.135.738-.2.124-.03.268-.057.4-.085.163-.035.33-.069.507-.1.195-.035.4-.068.616-.1A27.309,27.309,0,0,1,49.527,34C54.253,34,56.9,34.973,57.456,35.489ZM42.207,43.716c.09.038.183.074.277.111.174.068.352.132.536.195.1.033.192.065.291.1.211.066.428.127.65.186.078.021.153.044.232.063.3.076.613.146.931.208.066.013.135.023.2.036q.383.072.775.131c.112.017.225.031.338.046.225.03.451.057.68.081l.36.035c.236.021.473.037.711.051.106.006.212.014.318.019.342.015.683.025,1.023.025s.681-.01,1.023-.025c.108-.005.216-.013.324-.019.235-.014.47-.03.7-.05.123-.011.246-.023.368-.036q.337-.034.67-.08c.116-.015.232-.03.347-.047.258-.038.512-.082.763-.129.071-.013.143-.024.214-.038q.474-.094.926-.207c.084-.021.164-.045.247-.067.217-.058.43-.118.636-.183.1-.032.2-.065.3-.1q.274-.093.534-.194c.093-.036.186-.073.276-.111.18-.076.351-.156.516-.238.052-.026.111-.048.161-.074l.006,3.524c-.235.569-2.819,1.837-6.9,2.04-.366.013-.72.031-1.115.031a18.672,18.672,0,0,1-6.041-.932l-.019-.03c-.118-.206-.243-.407-.378-.6-.02-.029-.043-.056-.064-.085-.125-.175-.254-.346-.393-.51-.042-.049-.087-.094-.13-.143-.123-.139-.247-.276-.379-.406-.068-.067-.141-.127-.211-.192-.116-.106-.23-.212-.351-.311-.012-.01-.022-.021-.034-.03,0-.391,0-1.26,0-2.353.051.027.112.05.164.076C41.862,43.562,42.03,43.641,42.207,43.716ZM29,55H10.838c-.231,0-.461-.008-.688-.023-1.965-.133-4.043-2.17-5.851-5.735A17.59,17.59,0,0,1,9.273,27.571l7.078-5.157A6.655,6.655,0,0,1,20.444,21h7.777A7.013,7.013,0,0,1,32.3,22.621l7.2,4.894a17.694,17.694,0,0,1,4.445,5,9.39,9.39,0,0,0-3.331,1.243l-.069.048a3.26,3.26,0,0,0-.349.291c-.045.043-.085.087-.126.132a2.262,2.262,0,0,0-.217.269,1.947,1.947,0,0,0-.13.242,1.866,1.866,0,0,0-.1.223,1.713,1.713,0,0,0-.089.534v9.089a7.848,7.848,0,0,0-1.044-.337c-.047-.012-.094-.025-.141-.036a7.912,7.912,0,0,0-1.072-.178c-.041,0-.082,0-.123-.006-.205-.016-.411-.031-.62-.031-.11,0-.216.012-.325.016-.085,0-.17.007-.255.013a8.059,8.059,0,0,0-1.05.138l-.02,0c-.027.006-.052.017-.079.023a7.644,7.644,0,0,0-.916.266c-.108.038-.216.076-.322.118a7.929,7.929,0,0,0-.866.4c-.1.057-.2.123-.305.185-.195.119-.385.244-.568.379-.108.079-.217.156-.321.24a7.892,7.892,0,0,0-.671.609c-.093.094-.178.194-.266.293-.15.168-.293.343-.428.523-.073.1-.15.191-.219.292a7.917,7.917,0,0,0-.478.8c-.056.108-.107.218-.159.329a7.848,7.848,0,0,0-.305.753c-.026.075-.058.146-.081.222a7.923,7.923,0,0,0-.238,1.012c-.008.044-.024.086-.031.13s-.008.112-.015.166c-.032.235-.052.473-.063.714,0,.086-.012.171-.013.258,0,.037-.006.073-.006.11,0,.159.015.314.024.47A9.585,9.585,0,0,0,29,55Zm7.536,3a6,6,0,0,1-6-5.929c0-.078,0-.155,0-.233,0-.11.008-.219.017-.328.007-.092.018-.183.029-.274s.026-.185.042-.276a5.807,5.807,0,0,1,.182-.766c.008-.027.02-.052.029-.078a5.851,5.851,0,0,1,.3-.733l.033-.068A6.168,6.168,0,0,1,33.6,46.772l.011-.007a5.933,5.933,0,0,1,.73-.345c.065-.026.131-.049.2-.072a5.607,5.607,0,0,1,.681-.2c.032-.007.062-.018.094-.024a6.127,6.127,0,0,1,.868-.108c.055,0,.11-.007.166-.008a5.984,5.984,0,0,1,.879.033l.049.008a5.882,5.882,0,0,1,.907.185l.013,0a6.33,6.33,0,0,1,1.681.779l.04.028c.035.024.067.051.1.075a6.033,6.033,0,0,1,.478.38c.037.032.073.066.109.1a6.113,6.113,0,0,1,.436.446l.042.046a5.984,5.984,0,0,1,.812,1.218c.051.1.1.2.147.3.076.175.142.352.2.531,0,.013.01.026.014.039.058.181.1.365.145.55,0,.015.008.029.011.043.038.184.066.37.087.557,0,.017.006.032.008.049a6.007,6.007,0,0,1,.032.616,6.072,6.072,0,0,1-.034.633c0,.031-.01.06-.014.091-.022.181-.049.361-.088.538,0,.02-.011.039-.015.059-.043.19-.094.378-.156.564l-.009.024q-.1.291-.228.574A6.011,6.011,0,0,1,36.532,58Zm13-3a19.615,19.615,0,0,1-5.339-.706.013.013,0,0,0,0-.006,8.023,8.023,0,0,0,.224-1c.013-.081.026-.161.037-.243A8.037,8.037,0,0,0,44.532,52c0-.259-.014-.516-.039-.771-.009-.092-.025-.181-.037-.272-.017-.129-.029-.259-.052-.386A28.78,28.78,0,0,0,49.532,51a22.551,22.551,0,0,0,8-1.259l.006,3.188C57.286,53.546,54.251,55,49.532,55Zm0-12c-4.7,0-7.731-1.441-7.995-1.994,0-1.14,0-2.3,0-3.261.025.011.055.02.081.031.239.1.489.2.755.286l.043.014c.272.088.559.167.852.24.1.024.195.046.293.068.214.049.43.1.651.138.107.021.213.041.321.06.243.043.487.081.734.117l.233.035c.323.043.646.081.967.112l.241.021c.247.022.491.042.733.058l.31.019c.224.013.442.023.658.031l.271.01c.293.008.579.013.849.013s.555-.005.848-.013l.275-.01c.214-.008.431-.018.654-.031l.314-.019q.363-.024.734-.059l.238-.021c.322-.032.645-.069.968-.113L53.8,38.7q.369-.052.732-.117c.109-.019.215-.04.322-.06.221-.043.438-.089.653-.139.1-.023.2-.044.292-.068.3-.075.591-.155.868-.245l.04-.014c.261-.086.508-.181.743-.281.028-.012.061-.022.089-.034l.006,3.188C57.286,41.546,54.251,43,49.532,43Z"/></g></svg>