<svg xmlns="http://www.w3.org/2000/svg" width="58" height="60" viewBox="0 0 58 60"><g transform="translate(-0.569)"><g transform="translate(0.569 0)"><g transform="translate(0 0)"><path d="M36,57.852a73.538,73.538,0,0,1-30.441-10.3l-2.7-1.655a18.486,18.486,0,0,0,.862-2.975c.067-.3.136-.592.207-.884.209-.845.441-2.223.709-3.817a48.734,48.734,0,0,1,1.3-6.3l5.933-15.693c.13-.342.248-.711.368-1.089a6.13,6.13,0,0,1,1.276-2.616,5.117,5.117,0,0,1,1.248-.766.821.821,0,0,0,.145-.085L26.645,2.392a1.563,1.563,0,0,1,1.985.02l5.888,4.861a1.7,1.7,0,0,1,.053,2.545l-3.756,3.391a1.577,1.577,0,0,1-2.2-.075,1.685,1.685,0,0,1-.464-1.338,1.668,1.668,0,0,1,.71-1.218l.333-.23-1.1-1.7-.332.229a3.712,3.712,0,0,0-1.582,2.717,3.759,3.759,0,0,0,1.034,2.985,3.516,3.516,0,0,0,4.9.169L35.278,11.9l.972,1.5-5.934,5.25-7.089-.915c.108-.523.232-1.044.376-1.559l-1.9-.569a24.736,24.736,0,0,0-.917,7.261c.03,1.32.166,2.634.3,3.906a39.686,39.686,0,0,1,.292,4.336,14.628,14.628,0,0,1-4.3,10.691L18.38,43.34A14.914,14.914,0,0,0,22.493,36.7a2.667,2.667,0,0,1,1.053-.063,11.386,11.386,0,0,1,3.749,1.039,12.337,12.337,0,0,0-1.171,2.559L28,40.88a10.248,10.248,0,0,1,1.037-2.226c.024.016.05.029.072.045l.95-1.43a12.848,12.848,0,0,1,7.814-4.154c4.789-.741,9.242.954,11.64,4.413l1.612-1.19a12.134,12.134,0,0,0-3.772-3.5A10.9,10.9,0,0,1,57.92,30.759l.65-1.931a12.894,12.894,0,0,0-13.146,3.061,15.1,15.1,0,0,0-7.84-.8,14.78,14.78,0,0,0-9.067,4.893,13.384,13.384,0,0,0-4.8-1.389,6.891,6.891,0,0,0-.693-.028,19.506,19.506,0,0,0,.329-3.444,41.568,41.568,0,0,0-.3-4.568c-.128-1.23-.26-2.5-.287-3.736a22.591,22.591,0,0,1,.147-3.065l7.594.979c.044,0,.085.006.126.006a.97.97,0,0,0,.644-.246l6.934-6.133a1.044,1.044,0,0,0,.18-1.342l-1.737-2.69a3.736,3.736,0,0,0-.893-4.655L29.869.813A3.5,3.5,0,0,0,25.438.77L14.222,9.676l-.367.259a6.794,6.794,0,0,0-1.65,1.05,7.666,7.666,0,0,0-1.85,3.512c-.108.34-.215.675-.332.985L4.089,31.175a46.7,46.7,0,0,0-1.408,6.692c-.251,1.487-.486,2.893-.677,3.663-.075.3-.146.61-.216.917A12.427,12.427,0,0,1,.7,45.777a1.041,1.041,0,0,0,.351,1.39l3.49,2.139A75.587,75.587,0,0,0,35.829,59.889c.793.07,1.793.11,2.934.11C44.458,60,53.644,58.971,58,55.264l-1.259-1.577C52.243,57.516,41.009,58.288,36,57.852Z" transform="translate(-0.569 0)"/></g></g></g></svg>