<svg xmlns="http://www.w3.org/2000/svg" width="47.634" height="47.664" viewBox="0 0 47.634 47.664"><g transform="translate(-2 -1.969)"><path d="M24.824,1.969a2.982,2.982,0,0,0-1.457.4C2.035,15.339,2.039,15.823,2,16.49c-.016.279.516.861,1.969,2.179a.884.884,0,0,0-.016.2c0,3.039.008,10.54.012,12.188a1.985,1.985,0,0,0-.973,1.706,2.012,2.012,0,0,0,.12.675A2.922,2.922,0,0,0,2,35.709a6,6,0,0,0,1.136,3.043A17.869,17.869,0,0,0,4.19,40.314a.986.986,0,0,0,.783.388,1,1,0,0,0,.787-.38,18.013,18.013,0,0,0,1.058-1.547,6.007,6.007,0,0,0,1.136-3.066,2.922,2.922,0,0,0-1.113-2.272,2.012,2.012,0,0,0,.12-.675,1.987,1.987,0,0,0-.946-1.69c0-1.411-.008-6.888-.012-10.606,1.33,1.178,2.368,2.1,4.927,4.357V17.878S16.184,14.9,24.824,14.9s13.893,2.977,13.893,2.977v6.947c6.822-6.036,8.962-7.8,8.931-8.338-.039-.667-.035-1.147-21.386-14.13A2.841,2.841,0,0,0,24.824,1.969ZM38.717,24.824c-.027.023-.178-.031-.426-.14-.329-.109-.861-.268-1.558-.446v2.682l1.1-.116a1.89,1.89,0,0,1,1.283.407,2.342,2.342,0,0,1,.593,1.8,3.112,3.112,0,0,1-.1.775,9.893,9.893,0,0,0-9.183,13.381,8.108,8.108,0,0,1-5.594,2.493H24.82c-4.547,0-8.575-4.462-11.97-13.257l-.217-.57-.6-.062a2.643,2.643,0,0,1-2.089-2.76,2.354,2.354,0,0,1,.581-1.795,1.9,1.9,0,0,1,1.295-.415l1.1.116V24.239c-.733.19-1.279.353-1.6.457-.221.1-.353.151-.38.128v.07a3.616,3.616,0,0,0-1.725.841,4.2,4.2,0,0,0-1.252,3.279A4.659,4.659,0,0,0,11.2,33.635c3.687,9.3,8.272,14.013,13.626,14.013h0A9.76,9.76,0,0,0,31.329,45,9.916,9.916,0,1,0,41.6,29.972a4.861,4.861,0,0,0,.093-.957,4.2,4.2,0,0,0-1.252-3.279,3.616,3.616,0,0,0-1.725-.841Zm-25.8-.585a48.994,48.994,0,0,1,11.908-1.4,48.771,48.771,0,0,1,11.908,1.4V19.134a30.821,30.821,0,0,0-11.908-2.248,30.594,30.594,0,0,0-11.908,2.241ZM39.71,31.771a7.939,7.939,0,1,1-7.939,7.939A7.924,7.924,0,0,1,39.71,31.771ZM4.977,34.748a.964.964,0,0,1,.992.961,6.436,6.436,0,0,1-.849,2.031c-.07.116-.07.1-.14.206-.07-.112-.074-.1-.147-.217a6.761,6.761,0,0,1-.849-2.02A.964.964,0,0,1,4.977,34.748Zm33.74,0v3.969H34.748V40.7h3.969v3.969H40.7V40.7h3.969V38.717H40.7V34.748Z" transform="translate(0)"/></g></svg>