<svg xmlns="http://www.w3.org/2000/svg" width="56" height="60" viewBox="0 0 56 60"><g transform="translate(-13.779)"><g transform="translate(13.779)"><path d="M68.034,6.635h-4.74V1.786A1.766,1.766,0,0,0,61.549,0H15.524a1.766,1.766,0,0,0-1.745,1.786V51.579a1.766,1.766,0,0,0,1.745,1.786h4.74v4.849A1.766,1.766,0,0,0,22.009,60H68.034a1.766,1.766,0,0,0,1.745-1.786V8.421A1.765,1.765,0,0,0,68.034,6.635Zm-47.259,19.9a1.806,1.806,0,0,0-.511,1.262v22H17.269V3.571H59.8V6.635H40.946a1.725,1.725,0,0,0-1.234.523ZM39.2,12.732v13.28H26.222Zm27.088,43.7H23.754V29.583H40.946A1.766,1.766,0,0,0,42.692,27.8V10.219s0-.009,0-.013h23.6V56.429Z" transform="translate(-13.779 0)"/></g></g></svg>