<svg xmlns="http://www.w3.org/2000/svg" width="80" height="80" viewBox="0 0 80 80"><circle cx="40" cy="40" r="40" transform="translate(0 0)" fill="#d42428"/><path d="M125.948,69.38a40,40,0,1,1-56.572,56.572Z" transform="translate(-57.665 -57.669)" fill="#cc202d"/><path d="M187.164,186.945l-19.8-19.8-23.349,2.658-14.123,21.865,26.391,26.39A40.046,40.046,0,0,0,187.164,186.945Z" transform="translate(-107.969 -138.933)" fill="#ba202e"/><path d="M161.035,161.343a6.069,6.069,0,0,0-6.068-6.071H126.5a6.069,6.069,0,0,0-6.067,6.071v16.28a6.069,6.069,0,0,0,6.067,6.071h28.468a6.069,6.069,0,0,0,6.068-6.071v-16.28Zm-24.363,15.008V161.06l11.6,7.646Z" transform="translate(-100.103 -129.062)" fill="#fff"/></svg>