<?xml version="1.0" encoding="utf-8"?><svg xmlns="http://www.w3.org/2000/svg" width="100" height="80" viewBox="0 0 100 80"><path d="M38.041 0a6.029 6.029 0 00-5.992 6v6H6.082A6.029 6.029 0 00.09 18v11.373a2 2 0 000 1.187V74a6.029 6.029 0 005.992 6h87.886a6.029 6.029 0 005.992-6V30.373a2.089 2.089 0 000-.813V18a6.029 6.029 0 00-5.992-6H68.002V6a6.029 6.029 0 00-5.992-6zm0 4h23.968a2 2 0 012 2v6H36.043V6a2 2 0 011.998-2zM6.082 16h87.886a2 2 0 012 2v10h-7.99a4 4 0 00-3.995-4h-7.99a4 4 0 00-3.995 4H28.053a4 4 0 00-3.995-4h-7.99a4 4 0 00-3.995 4H4.085V18a2 2 0 012-2zm9.987 12h7.99v1.06a2 2 0 000 1.753V32h-7.99v-1.627a2.089 2.089 0 000-.813zm59.922 0h7.99v1.06a2 2 0 000 1.753V32h-7.99v-1.627a2.089 2.089 0 000-.813zM4.085 32h7.99a4 4 0 003.995 4h7.99a4 4 0 003.995-4h43.941a4 4 0 003.995 4h7.99a4 4 0 003.995-4h7.99v42a2 2 0 01-2 2H6.082a2 2 0 01-2-2z"/></svg>