<?xml version="1.0" encoding="utf-8"?><svg xmlns="http://www.w3.org/2000/svg" width="77.212" height="77.242" viewBox="0 0 77.212 77.242"><path d="M71.813.014a11.488 11.488 0 00-2.616.632 39.261 39.261 0 00-6.921 3.455l-.945-1a1.632 1.632 0 00-.732-.419 13.775 13.775 0 00-1.624-.256 16.167 16.167 0 00-4.249.106c-3.449.537-8.05 2.286-12.735 6.988a54.434 54.434 0 00-9.012 11.617c-1.783 3.1-2.762 5.294-3.723 6.345a3.159 3.159 0 01-3.511.783 1.68 1.68 0 00-1.314 3.092s4.3 1.677 7.268-1.571c1.621-1.767 2.5-4.042 4.193-6.971a50.269 50.269 0 018.436-10.9c4.221-4.21 8.095-5.641 10.9-6.077a8.755 8.755 0 014.087.1l.157.162a262.557 262.557 0 00-22.359 19.91C24.426 38.695 9.964 56.042 9.964 56.042a1.677 1.677 0 00-.369 1.118 48.972 48.972 0 00-5.87 11.266 22.261 22.261 0 00-.99 3.706l-2.236 2.2a1.706 1.706 0 002.414 2.411l2.2-2.236a22.26 22.26 0 003.723-1 48.44 48.44 0 0011.321-5.87 1.677 1.677 0 001.045-.369S38.531 52.81 51.233 40.126a251.123 251.123 0 0021.18-24.039 1.745 1.745 0 00.257-.313l.056-.056.05-.05a1.487 1.487 0 00.157-.313 40.872 40.872 0 003.673-7.268 9.666 9.666 0 00.607-3.511 4.875 4.875 0 00-1.31-3.25A4.875 4.875 0 0072.649.018a6 6 0 00-.839 0zm.738 3.354a1.263 1.263 0 011.308 1.308 6.663 6.663 0 01-.419 2.236 33.542 33.542 0 01-2.516 5.031l-5.658-5.641a33.018 33.018 0 015.031-2.516 6.613 6.613 0 012.252-.417zM62.38 8.193l6.658 6.709A235.913 235.913 0 0148.857 37.75c-11.483 11.46-26.432 24.056-28.875 26.1l-6.608-6.6c2.046-2.449 14.641-17.4 26.1-28.88a230.269 230.269 0 0122.9-20.176zM11.54 59.346l6.345 6.34a46.4 46.4 0 01-9.962 5.14 8.543 8.543 0 01-2.041.52 8.542 8.542 0 01.52-2.04 46.255 46.255 0 015.138-9.957z"/></svg>