<?xml version="1.0" encoding="utf-8"?><svg xmlns="http://www.w3.org/2000/svg" width="76" height="80" viewBox="0 0 76 80"><path d="M57.765.021a3.325 3.325 0 012.407 3.157v3.244h9.612a2.971 2.971 0 012.176.878 3.035 3.035 0 01.88 2.194V49.7a16.25 16.25 0 00-2.111-1.563 1.894 1.894 0 01-1.056-2.027c.037-7.083 0-14.166 0-21.249v-.8H3.199v49.563h39.866a1.085 1.085 0 011.056.587c.554.875 1.182 1.7 1.842 2.624H3.732c-1.858 0-3.13-.635-3.732-2.453V8.854A3.357 3.357 0 013.695 6.4c2.739.08 5.479 0 8.218 0h.728V3.152A3.3 3.3 0 0115.048 0h4.687a.691.691 0 00.2.133 3.155 3.155 0 012.26 3.367v2.89h28.5V3.2a3.306 3.306 0 012.41-3.157zM69.636 9.67h-9.464v3.243a3.131 3.131 0 01-3.061 3.109h-3.357a3.077 3.077 0 01-2.951-2.261 5.587 5.587 0 01-.127-1.328V9.67h-28.5v3.23a3.12 3.12 0 01-3.1 3.136h-3.1a3.1 3.1 0 01-2.4-.915 3.165 3.165 0 01-.906-2.423V9.67H3.209v11.12h66.427zM18.96 3.269h-3.083v9.5h3.093zm34.905 9.51h3.095V3.253h-3.09z"/><path d="M58.486 80l-1.725-.349a15.878 15.878 0 1119.128-17.535 2.116 2.116 0 00.111.355v3.3a1.588 1.588 0 00-.106.286 15.878 15.878 0 01-12.523 13.624c-.529.116-1.059.212-1.588.318zM47.451 64.122a12.631 12.631 0 100-.021z"/><path d="M12.64 67.091V30.64h47.582v14.248H49.107c0 1.059.032 2.117 0 3.107a1.371 1.371 0 01-.4.831c-.873.82-1.789 1.588-2.742 2.424v-6.314h-7.893v7.886h6.658c-.582 1.059-1.111 2.032-1.678 2.985a.736.736 0 01-.529.191H38.05v7.939h3.1l.3 3.176zm3.176-33.286v7.881h7.86v-7.881zM26.93 41.67h7.876v-7.833H26.93zm18.964 0v-7.84h-7.822v7.87zm11.156-7.828h-7.87v7.823h7.87zM15.837 44.957v7.828h7.854V44.93zm11.115 0v7.828h7.838v-7.87zm-3.244 11.1h-7.887v7.844h7.886zm3.25-.032v7.886h7.844V56.03zM61.753 62.497c.27 0 .5.037.725.037h5.335a1.593 1.593 0 11-.011 3.176h-6.039c0 .265-.037.487-.042.709v5.462a1.556 1.556 0 01-2.165 1.535 1.434 1.434 0 01-1.006-1.519v-6.15c-.281 0-.5-.032-.725-.037H52.49c-1.127 0-1.768-.6-1.752-1.625s.651-1.545 1.762-1.551h6.013c0-.291.032-.529.037-.741v-5.335a1.527 1.527 0 011.588-1.736 1.505 1.505 0 011.588 1.715v5.335c-.001.227.02.455.027.725z"/></svg>