<?xml version="1.0" encoding="utf-8"?><svg xmlns="http://www.w3.org/2000/svg" width="80.537" height="80.537" viewBox="0 0 80.537 80.537"><path d="M80.537 21.104v8.446c-9.2 2.553-9.2 2.553-4.356 10.982l-6.013 5.857c-8.4-4.8-8.4-4.8-10.872 4.466H50.85c-2.563-9.005-2.563-9.005-10.644-4.576l-5.848-6.351c4.695-8.035 4.695-8.035-4.576-10.159v-8.411c9-3.249 9-3.249 4.53-10.589l6.214-6.031c8.017 3.99 8.017 3.99 10.241-4.741h8.456c2.691 9.207 2.691 9.207 10.772 4.466l5.967 6.077c-4.568 8.102-4.568 8.102 4.575 10.564zm-38.173-4.713c-1.83 3.139-1.83 7.441-6.772 7.239-.778 0-1.6 1.236-2.4 1.894.76.567 1.437 1.409 2.288 1.638 5.967 1.62 7.633 5.546 4.576 10.708-.485.815-.284 2.032-.4 3.066a7.829 7.829 0 002.746-.357c5.647-3.139 9.216-1.638 10.982 4.576.22.805 1.144 1.419 1.739 2.123.613-.7 1.538-1.309 1.775-2.123 1.83-6.315 5.363-7.816 10.982-4.64a8.136 8.136 0 002.746.43c0-.915.3-1.977-.073-2.681-3.313-6.269-2.151-9.152 4.576-11.184.778-.238 1.327-1.236 1.986-1.885-.595-.54-1.117-1.345-1.83-1.574-6.836-2.178-8.109-5.079-4.869-11.046.4-.741.183-1.83.256-2.746a7.287 7.287 0 00-2.746.247c-5.876 3.258-9.317 1.885-10.982-4.384-.229-.842-1.089-1.51-1.656-2.261-.632.659-1.62 1.217-1.83 2-1.931 6.562-4.9 7.761-11.211 4.484a6.818 6.818 0 00-2.361-.256c0 .915-.375 1.959 0 2.691a31.276 31.276 0 002.478 4.041z"/><path d="M3.368 44.174a6.414 6.414 0 001.382.906c6.406 1.522 7.386 6.342 7.99 11.878 1.272 11.606 1.446 11.588 13.023 11.733h3.286v10.211c-2.993.516-2.993.516-3.8-6.125-.247-.127-.513-.381-.76-.362-13.133.571-14.643-5.164-15.366-14.179-.366-4.421-.961-8.4-6.242-10.165-2.965-.988-3.661-3.869-2-6.795a47.285 47.285 0 002.462-4.322c2-4.8 4.356-9.531 5.692-14.5 2.874-10.754 8.786-18.392 20-21.291a14.544 14.544 0 014.045-.48c.522 0 1.217.788 1.464 1.377.137.326-.348 1.142-.769 1.431a5.47 5.47 0 01-2.1.788c-11.11 2.138-16.693 9.314-19.219 19.8-1.144 4.72-3.4 9.187-5.354 13.681a64.389 64.389 0 01-3.734 6.414zM62.213 80.537c-1.7-1.382-3.331-2.077-3.35-2.819-.275-8.63-.842-17.389 4.32-25.049.787-1.181 2.315-1.83 3.505-2.746-.146 1.528.183 3.359-.531 4.576-4.219 6.9-3.862 14.487-3.771 22.065.001.69-.057 1.438-.173 3.973zM55.234 34.339a9.152 9.152 0 118.969-9.152 9.152 9.152 0 01-8.969 9.152zm-5.674-9.152c.4 3.322 2.151 5.491 5.574 5.436a4.979 4.979 0 005.317-5.125c.137-3.4-1.83-5.537-5.235-5.656s-5.217 1.981-5.656 5.349z"/></svg>