<?xml version="1.0" encoding="utf-8"?><svg xmlns="http://www.w3.org/2000/svg" width="97" height="80" viewBox="0 0 97 80"><path d="M30.823 21.853a26.976 26.976 0 005.007 14.784c3.56 5.073 8.061 7.867 12.673 7.867s9.113-2.794 12.673-7.867a26.976 26.976 0 005.007-14.784 17.68 17.68 0 10-35.36 0zm17.68-14.61a14.626 14.626 0 0114.61 14.61 24.15 24.15 0 01-4.45 13.02c-2.925 4.17-6.628 6.551-10.159 6.551s-7.231-2.392-10.16-6.551a24.15 24.15 0 01-4.45-13.019 14.628 14.628 0 0114.609-14.61z"/><path d="M61.61 39.428a1.516 1.516 0 00-1.733.3c-3.411 3.425-7.344 5.234-11.375 5.234s-7.964-1.81-11.375-5.234a1.514 1.514 0 00-1.733-.3 30.742 30.742 0 00-17.417 27.754v.025a1.546 1.546 0 00.5 1.138 44.5 44.5 0 0060.049 0 1.538 1.538 0 00.5-1.138v-.025A30.736 30.736 0 0061.61 39.428zm-13.107 37.5a41.4 41.4 0 01-27.467-10.4A27.672 27.672 0 0135.774 42.67a17.789 17.789 0 0025.46 0 27.674 27.674 0 0114.74 23.858 41.407 41.407 0 01-27.471 10.4z"/><path d="M92.756 40.929a26.839 26.839 0 00-11.027-9.7 1.537 1.537 0 00-1.744.3 13.858 13.858 0 01-9.754 4.467 12.212 12.212 0 01-5.5-1.343 1.536 1.536 0 10-1.376 2.747 15.271 15.271 0 006.868 1.666 16.511 16.511 0 0011.113-4.594 23.7 23.7 0 0112.585 20.286 36.275 36.275 0 01-13.083 7.3 1.535 1.535 0 00.45 3 1.52 1.52 0 00.452-.07 39.3 39.3 0 0014.755-8.411 1.529 1.529 0 00.5-1.136v-.027a26.683 26.683 0 00-4.243-14.485zM26.712 35.2a10.776 10.776 0 004.813-1.175 1.536 1.536 0 00-1.366-2.751 7.7 7.7 0 01-3.447.856c-2.976 0-6.106-2.029-8.6-5.568a20.642 20.642 0 01-3.783-11.109 12.389 12.389 0 0120.982-8.917 1.535 1.535 0 002.131-2.211 15.459 15.459 0 00-26.183 11.128 23.567 23.567 0 004.356 12.872c3.103 4.433 7.044 6.875 11.097 6.875z"/><path d="M12.487 60.666a35.889 35.889 0 01-9.416-5.936 23.641 23.641 0 0112.548-20.227A16.458 16.458 0 0026.7 39.08a15.24 15.24 0 006.923-1.695 1.537 1.537 0 00-1.376-2.749 12.194 12.194 0 01-5.539 1.365 13.813 13.813 0 01-9.723-4.454 1.537 1.537 0 00-1.744-.3A26.714 26.714 0 000 55.389v.02a1.533 1.533 0 00.5 1.134 38.973 38.973 0 0010.777 6.937 1.561 1.561 0 00.614.125 1.535 1.535 0 00.614-2.946zM14.303 62.646a1.534 1.534 0 102.835 0 1.545 1.545 0 00-2.835 0z"/><path d="M17.134 62.677c.04.09-.037-.093 0 0zM61.697 6.536a12.389 12.389 0 0120.988 8.917 20.6 20.6 0 01-3.8 11.107c-2.481 3.539-5.613 5.568-8.6 5.568a7.705 7.705 0 01-3.447-.856 1.536 1.536 0 00-1.367 2.751 10.775 10.775 0 004.815 1.175c4.049 0 7.983-2.44 11.1-6.874a23.488 23.488 0 004.358-12.872A15.459 15.459 0 0059.56 4.324a1.536 1.536 0 102.133 2.211z"/></svg>