<?xml version="1.0" encoding="utf-8"?><svg xmlns="http://www.w3.org/2000/svg" width="80" height="80" viewBox="0 0 80 80"><path d="M51.917 21.284H28.078a6.91 6.91 0 00-6.9 6.9V52.03a6.911 6.911 0 006.9 6.9h23.839a6.911 6.911 0 006.9-6.9V28.186a6.91 6.91 0 00-6.9-6.902zM40 52.504a12.394 12.394 0 1112.394-12.4A12.408 12.408 0 0140 52.504zm12.793-22.227a2.932 2.932 0 112.932-2.932 2.936 2.936 0 01-2.932 2.932z" fill="#6a453b"/><path d="M40 32.952a7.157 7.157 0 107.156 7.155A7.166 7.166 0 0040 32.952z" fill="#6a453b"/><path d="M40 0a40 40 0 1040 40A40 40 0 0040 0zm24.061 52.03a12.152 12.152 0 01-12.139 12.139H28.078A12.153 12.153 0 0115.939 52.03V28.186a12.153 12.153 0 0112.139-12.139h23.844a12.153 12.153 0 0112.139 12.139z" fill="#6a453b"/></svg>