<?xml version="1.0" encoding="utf-8"?><svg xmlns="http://www.w3.org/2000/svg" width="52" height="60" viewBox="0 0 52 60"><path d="M51.425 44.601l-2.06-3.355a1.116 1.116 0 00-1.567-.363 1.2 1.2 0 00-.351 1.617l2.061 3.355a1.558 1.558 0 01-.209 1.887 1.437 1.437 0 01-1.161.43 1.457 1.457 0 01-1.068-.637l-8.884-13.034-3.521-8.667v-1.02a1.136 1.136 0 10-2.272 0v15.617H19.6V24.814a1.136 1.136 0 10-2.272 0v1.03l-3.513 8.657-8.883 13.032a1.456 1.456 0 01-1.068.636 1.437 1.437 0 01-1.161-.43 1.558 1.558 0 01-.209-1.887l7.893-12.851a1.18 1.18 0 00.113-.255l3.38-10.356a8.7 8.7 0 018.226-6.1h7.788a8.7 8.7 0 018.226 6.1l3.38 10.356a1.178 1.178 0 00.117.254l1.542 2.512a1.127 1.127 0 00.961.545 1.106 1.106 0 00.607-.182 1.194 1.194 0 00.351-1.617l-1.469-2.392-3.336-10.224a11.021 11.021 0 00-9.122-7.622 7.474 7.474 0 002-5.108V7.377a7.153 7.153 0 10-14.3 0v1.536a7.472 7.472 0 002 5.108 11.022 11.022 0 00-9.123 7.622L8.4 31.865.575 44.601a3.971 3.971 0 00.532 4.81 3.687 3.687 0 002.048 1.065 7.245 7.245 0 00.065 5.112 6.85 6.85 0 006.342 4.413 6.618 6.618 0 001.775-.243L26 55.685l14.663 4.072a6.616 6.616 0 001.775.244 6.851 6.851 0 006.342-4.413 7.247 7.247 0 00.065-5.112 3.69 3.69 0 002.049-1.065 3.97 3.97 0 00.532-4.81zM21.122 7.377a4.88 4.88 0 119.756 0v1.536a4.88 4.88 0 11-9.756 0zm15.016 28.146a1.168 1.168 0 00.118.221l6.406 9.4-8-4.208v-9.04zm-20.395.221a1.166 1.166 0 00.118-.221l1.469-3.615v9.031l-7.993 4.205zm30.93 18.966a4.537 4.537 0 01-5.42 2.785l-11.49-3.194a4.089 4.089 0 001.494-3.171v-.131l7.1 1.73a1.1 1.1 0 00.262.032 1.144 1.144 0 001.1-.9 1.174 1.174 0 00-.844-1.41l-8.494-2.07a1.1 1.1 0 00-.2-.029 4.019 4.019 0 00-.407-.385 3.8 3.8 0 00-3.327-.763L13.124 50.45a1.174 1.174 0 00-.844 1.41 1.135 1.135 0 001.367.871l13.322-3.246a1.592 1.592 0 011.4.32 1.715 1.715 0 01-.592 2.962l-2.022.562c-.024.005-.047.012-.07.019l-14.939 4.146a4.536 4.536 0 01-5.42-2.784 4.752 4.752 0 012.159-5.961l11.357-5.974h14.316l11.357 5.974a4.751 4.751 0 012.159 5.961zm0 0"/><path d="M45.235 39.107a1.152 1.152 0 001.63 0l.043-.042a1.153 1.153 0 00-1.628-1.632l-.043.043a1.153 1.153 0 00-.002 1.631zm0 0"/></svg>