<?xml version="1.0" encoding="utf-8"?><svg xmlns="http://www.w3.org/2000/svg" width="15" height="15" viewBox="0 0 15 15"><path d="M.388 15.005c1.055-1.037 1.94-1.9 2.818-2.769.987-.98 1.95-1.984 2.967-2.938a2.378 2.378 0 011-.509c.569-.154.938-.489.781-1.035a1.354 1.354 0 00-.832-.8c-.555-.134-.866.277-1.011.829a2.336 2.336 0 01-.472 1.011c-1.657 1.7-3.347 3.373-5.028 5.051-.174.174-.365.332-.615.564 1.051-3.505 2.072-6.9 3.113-10.358 1.829-.049 3.759-.066 5.351-1.174l3.613 3.61c-1.127 1.594-1.126 3.528-1.181 5.351zM15 5.13l-2.276 1.509-4.275-4.283L10.016 0z" fill="#f2ba02"/></svg>