<?xml version="1.0" encoding="utf-8"?><svg xmlns="http://www.w3.org/2000/svg" width="80" height="80" viewBox="0 0 80 80"><path d="M1.676 78.327a5.663 5.663 0 004.013 1.674 5.743 5.743 0 001.875-.313l15.99-5.493a39.243 39.243 0 0017.284 4.049h.063A39.111 39.111 0 105.814 56.462l-5.5 15.985a5.659 5.659 0 001.361 5.88zm3.126-4.339l5.828-16.937a2.375 2.375 0 00-.147-1.875 34.377 34.377 0 1114.355 14.355 2.367 2.367 0 00-1.875-.145L6.014 75.2a.955.955 0 01-1.21-1.212z"/><path d="M38.749 56.647a2.393 2.393 0 102.393 2.393 2.423 2.423 0 00-2.393-2.393zM38.752 19.818a11.919 11.919 0 00-11.9 11.907 2.393 2.393 0 104.785 0 7.12 7.12 0 117.12 7.12 2.393 2.393 0 00-2.393 2.393v9.759a2.393 2.393 0 004.787 0v-7.609a11.907 11.907 0 00-2.393-23.57z"/></svg>