<?xml version="1.0" encoding="utf-8"?><svg xmlns="http://www.w3.org/2000/svg" width="59.066" height="60" viewBox="0 0 59.066 60"><path d="M16.12 10.029a2.9 2.9 0 002.73 1.972h7.431a2.9 2.9 0 002.73-1.97 13.675 13.675 0 012.553-4.447 2.99 2.99 0 001.014-2.842A2.846 2.846 0 0030.65.56c-3-1-5.663-.66-7.7.967a.959.959 0 01-1.22 0C19.697-.099 17.034-.434 14.034.561a2.846 2.846 0 00-1.929 2.182 2.99 2.99 0 001.014 2.842 15.747 15.747 0 013.001 4.444zm-2.051-6.9a.85.85 0 01.594-.664 8.3 8.3 0 012.599-.464 5.01 5.01 0 013.221 1.091 2.959 2.959 0 003.718 0c1.5-1.2 3.458-1.412 5.82-.63a.85.85 0 01.593.664.974.974 0 01-.343.935c-1.528 1.294-2.894 4.576-3.15 5.319a.9.9 0 01-.839.622h-7.431a.9.9 0 01-.839-.622 17.286 17.286 0 00-3.6-5.319.972.972 0 01-.343-.937zM31.066 14.001a1 1 0 00-1-1 .977.977 0 00-.5.153.968.968 0 00-.5-.153h-12a1 1 0 000 2h12v1h-11a1 1 0 000 2h11.925a4.949 4.949 0 006.715-.293 1 1 0 10-1.414-1.414 3.069 3.069 0 01-4.226.014zM21.066 26.001c-6.411 0-14 8.131-14 15a1 1 0 002 0c0-5.71 6.729-13 12-13a1 1 0 000-2z"/><path d="M49.066 32.001a31.689 31.689 0 00-3.5.2 19.791 19.791 0 00-5.365-6.3l-7.199-4.9a8.889 8.889 0 00-5.246-2h-7.777a8.632 8.632 0 00-5.3 1.822l-7.078 5.155A19.6 19.6 0 002.05 50.146c1.514 2.985 4.043 6.592 7.5 6.826.271.018.545.028.821.028h19.463a7.978 7.978 0 0013.07-.869 21.419 21.419 0 006.162.87c4.809 0 10-1.529 10-4v-5.5h-.079a1.753 1.753 0 00.079-.5v-11.5c0-2.765-6.286-3.5-10-3.5zm7.924 3.491a.7.7 0 01-.067.065c-.039.031-.086.064-.139.1s-.146.086-.233.13a4.211 4.211 0 01-.23.11c-.1.047-.229.094-.356.142a7.464 7.464 0 01-.804.258c-.132.037-.262.075-.408.111-.19.047-.4.09-.617.133-.161.033-.314.067-.488.1-.24.042-.508.078-.773.114-.181.025-.35.053-.543.075-.315.036-.662.061-1.008.086-.176.013-.336.031-.52.042a31.629 31.629 0 01-3.482 0c-.184-.01-.344-.028-.52-.042-.346-.026-.693-.051-1.008-.086-.193-.022-.362-.05-.543-.075-.265-.036-.533-.072-.773-.114-.174-.031-.327-.065-.488-.1-.213-.044-.427-.087-.617-.133-.146-.036-.275-.073-.408-.111-.169-.047-.336-.1-.483-.143-.116-.038-.219-.077-.321-.115-.127-.048-.251-.1-.356-.142a4.211 4.211 0 01-.463-.24 1.5 1.5 0 01-.139-.1.6.6 0 01-.062-.06c.012-.01.02-.02.034-.031a1.621 1.621 0 01.142-.1 3.159 3.159 0 01.3-.169c.065-.033.129-.065.205-.1s.17-.07.261-.106c.108-.042.226-.084.351-.126.09-.03.177-.061.277-.091.224-.068.469-.135.738-.2.124-.03.268-.057.4-.085.163-.035.33-.069.507-.1.195-.035.4-.068.616-.1a27.309 27.309 0 014.089-.288c4.726 0 7.373.973 7.929 1.489zm-15.249 8.225c.09.038.183.074.277.111.174.068.352.132.536.195.1.033.192.065.291.1.211.066.428.127.65.186.078.021.153.044.232.063.3.076.613.146.931.208.066.013.135.023.2.036q.383.072.775.131c.112.017.225.031.338.046.225.03.451.057.68.081l.36.035c.236.021.473.037.711.051.106.006.212.014.318.019.342.015.683.025 1.023.025s.681-.01 1.023-.025c.108-.005.216-.013.324-.019a25.89 25.89 0 001.068-.086q.337-.034.67-.08c.116-.015.232-.03.347-.047.258-.038.512-.082.763-.129.071-.013.143-.024.214-.038q.474-.094.926-.207c.084-.021.164-.045.247-.067a11.713 11.713 0 00.936-.283q.274-.093.534-.194a9.175 9.175 0 00.792-.349c.052-.026.111-.048.161-.074l.006 3.524c-.235.569-2.819 1.837-6.9 2.04-.366.013-.72.031-1.115.031a18.672 18.672 0 01-6.041-.932l-.019-.03a7.869 7.869 0 00-.378-.6c-.02-.029-.043-.056-.064-.085a7.765 7.765 0 00-.393-.51c-.042-.049-.087-.094-.13-.143a8.086 8.086 0 00-.379-.406c-.068-.067-.141-.127-.211-.192-.116-.106-.23-.212-.351-.311-.012-.01-.022-.021-.034-.03v-2.353c.051.027.112.05.164.076.173.078.341.157.518.232zM28.534 55.001H10.372c-.231 0-.461-.008-.688-.023-1.965-.133-4.043-2.17-5.851-5.735a17.59 17.59 0 014.974-21.671l7.078-5.157a6.655 6.655 0 014.093-1.414h7.777a7.013 7.013 0 014.079 1.621l7.2 4.894a17.694 17.694 0 014.445 5 9.39 9.39 0 00-3.331 1.243l-.069.048a3.26 3.26 0 00-.349.291c-.045.043-.085.087-.126.132a2.262 2.262 0 00-.217.269 1.947 1.947 0 00-.13.242 1.866 1.866 0 00-.1.223 1.713 1.713 0 00-.089.534v9.089a7.848 7.848 0 00-1.044-.337l-.141-.036a7.912 7.912 0 00-1.072-.178c-.041 0-.082 0-.123-.006a7.942 7.942 0 00-.62-.031c-.11 0-.216.012-.325.016-.085 0-.17.007-.255.013a8.059 8.059 0 00-1.05.138h-.02c-.027.006-.052.017-.079.023a7.644 7.644 0 00-.916.266c-.108.038-.216.076-.322.118a7.929 7.929 0 00-.866.4c-.1.057-.2.123-.305.185a7.787 7.787 0 00-.568.379c-.108.079-.217.156-.321.24a7.892 7.892 0 00-.671.609c-.093.094-.178.194-.266.293a7.93 7.93 0 00-.428.523c-.073.1-.15.191-.219.292a7.917 7.917 0 00-.478.8c-.056.108-.107.218-.159.329a7.848 7.848 0 00-.305.753c-.026.075-.058.146-.081.222a7.923 7.923 0 00-.238 1.012c-.008.044-.024.086-.031.13s-.008.112-.015.166a7.99 7.99 0 00-.063.714c0 .086-.012.171-.013.258 0 .037-.006.073-.006.11 0 .159.015.314.024.47a9.585 9.585 0 00.442 2.543zm7.536 3a6 6 0 01-6-5.929v-.233c0-.11.008-.219.017-.328.007-.092.018-.183.029-.274s.026-.185.042-.276a5.807 5.807 0 01.182-.766c.008-.027.02-.052.029-.078a5.851 5.851 0 01.3-.733l.033-.068a6.168 6.168 0 012.432-2.543l.011-.007a5.933 5.933 0 01.73-.345c.065-.026.131-.049.2-.072a5.607 5.607 0 01.681-.2c.032-.007.062-.018.094-.024a6.127 6.127 0 01.868-.108c.055 0 .11-.007.166-.008a5.984 5.984 0 01.879.033l.049.008a5.882 5.882 0 01.907.185h.013a6.33 6.33 0 011.681.779l.04.028c.035.024.067.051.1.075a6.033 6.033 0 01.478.38c.037.032.073.066.109.1a6.113 6.113 0 01.436.446l.042.046a5.984 5.984 0 01.812 1.218c.051.1.1.2.147.3.076.175.142.352.2.531 0 .013.01.026.014.039.058.181.1.365.145.55 0 .015.008.029.011.043.038.184.066.37.087.557 0 .017.006.032.008.049a6.007 6.007 0 01.032.616 6.072 6.072 0 01-.034.633c0 .031-.01.06-.014.091a5.69 5.69 0 01-.088.538c0 .02-.011.039-.015.059-.043.19-.094.378-.156.564l-.009.024q-.1.291-.228.574a6.011 6.011 0 01-5.464 3.526zm13-3a19.615 19.615 0 01-5.339-.706.013.013 0 000-.006 8.023 8.023 0 00.224-1c.013-.081.026-.161.037-.243a8.037 8.037 0 00.074-1.045c0-.259-.014-.516-.039-.771-.009-.092-.025-.181-.037-.272-.017-.129-.029-.259-.052-.386a28.78 28.78 0 005.128.429 22.551 22.551 0 008-1.259l.006 3.188c-.252.617-3.287 2.071-8.006 2.071zm0-12c-4.7 0-7.731-1.441-7.995-1.994v-3.261c.025.011.055.02.081.031.239.1.489.2.755.286l.043.014a12.974 12.974 0 001.145.308c.214.049.43.1.651.138a24.416 24.416 0 001.055.177l.233.035c.323.043.646.081.967.112l.241.021c.247.022.491.042.733.058l.31.019c.224.013.442.023.658.031l.271.01c.293.008.579.013.849.013s.555-.005.848-.013l.275-.01c.214-.008.431-.018.654-.031l.314-.019q.363-.024.734-.059l.238-.021c.322-.032.645-.069.968-.113l.236-.032q.369-.052.732-.117c.109-.019.215-.04.322-.06.221-.043.438-.089.653-.139.1-.023.2-.044.292-.068.3-.075.591-.155.868-.245l.04-.014c.261-.086.508-.181.743-.281.028-.012.061-.022.089-.034l.006 3.188c-.259.616-3.294 2.07-8.013 2.07z"/></svg>