<?xml version="1.0" encoding="utf-8"?><svg xmlns="http://www.w3.org/2000/svg" width="58" height="60" viewBox="0 0 58 60"><path d="M35.431 57.852a73.538 73.538 0 01-30.441-10.3l-2.7-1.655a18.486 18.486 0 00.862-2.975c.067-.3.136-.592.207-.884.209-.845.441-2.223.709-3.817a48.734 48.734 0 011.3-6.3l5.933-15.693c.13-.342.248-.711.368-1.089a6.13 6.13 0 011.276-2.616 5.117 5.117 0 011.248-.766.821.821 0 00.145-.085l11.738-9.28a1.563 1.563 0 011.985.02l5.888 4.861a1.7 1.7 0 01.053 2.545l-3.756 3.391a1.577 1.577 0 01-2.2-.075 1.685 1.685 0 01-.464-1.338 1.668 1.668 0 01.71-1.218l.333-.23-1.1-1.7-.332.229a3.712 3.712 0 00-1.582 2.717 3.759 3.759 0 001.034 2.985 3.516 3.516 0 004.9.169l3.164-2.848.972 1.5-5.934 5.25-7.089-.915c.108-.523.232-1.044.376-1.559l-1.9-.569a24.736 24.736 0 00-.917 7.261c.03 1.32.166 2.634.3 3.906a39.686 39.686 0 01.292 4.336 14.628 14.628 0 01-4.3 10.691l1.302 1.539a14.914 14.914 0 004.113-6.64 2.667 2.667 0 011.053-.063 11.386 11.386 0 013.749 1.039 12.337 12.337 0 00-1.171 2.559l1.876.645a10.248 10.248 0 011.037-2.226c.024.016.05.029.072.045l.95-1.43a12.848 12.848 0 017.814-4.154c4.789-.741 9.242.954 11.64 4.413l1.612-1.19a12.134 12.134 0 00-3.772-3.5 10.9 10.9 0 0110.567-2.079l.65-1.931a12.894 12.894 0 00-13.146 3.061 15.1 15.1 0 00-7.84-.8 14.78 14.78 0 00-9.067 4.893 13.384 13.384 0 00-4.8-1.389 6.891 6.891 0 00-.693-.028 19.506 19.506 0 00.329-3.444 41.568 41.568 0 00-.3-4.568c-.128-1.23-.26-2.5-.287-3.736a22.591 22.591 0 01.147-3.065l7.594.979c.044 0 .085.006.126.006a.97.97 0 00.644-.246l6.934-6.133a1.044 1.044 0 00.18-1.342l-1.737-2.69a3.736 3.736 0 00-.893-4.655L29.3.813A3.5 3.5 0 0024.869.77L13.653 9.676l-.367.259a6.794 6.794 0 00-1.65 1.05 7.666 7.666 0 00-1.85 3.512c-.108.34-.215.675-.332.985L3.52 31.175a46.7 46.7 0 00-1.408 6.692c-.251 1.487-.486 2.893-.677 3.663-.075.3-.146.61-.216.917a12.427 12.427 0 01-1.088 3.33 1.041 1.041 0 00.351 1.39l3.49 2.139A75.587 75.587 0 0035.26 59.889c.793.07 1.793.11 2.934.11 5.695.001 14.881-1.028 19.237-4.735l-1.259-1.577c-4.498 3.829-15.732 4.601-20.741 4.165z"/></svg>