<?xml version="1.0" encoding="utf-8"?><svg xmlns="http://www.w3.org/2000/svg" width="47.634" height="47.664" viewBox="0 0 47.634 47.664"><path d="M22.824 0a2.982 2.982 0 00-1.457.4C.035 13.37.039 13.854 0 14.521c-.016.279.516.861 1.969 2.179a.884.884 0 00-.016.2c0 3.039.008 10.54.012 12.188a1.985 1.985 0 00-.973 1.706 2.012 2.012 0 00.12.675A2.922 2.922 0 000 33.74a6 6 0 001.136 3.043 17.869 17.869 0 001.054 1.562.986.986 0 00.783.388 1 1 0 00.787-.38 18.013 18.013 0 001.058-1.547 6.007 6.007 0 001.136-3.066 2.922 2.922 0 00-1.113-2.272 2.012 2.012 0 00.12-.675 1.987 1.987 0 00-.946-1.69c0-1.411-.008-6.888-.012-10.606 1.33 1.178 2.368 2.1 4.927 4.357v-6.945s5.254-2.978 13.894-2.978 13.893 2.977 13.893 2.977v6.947c6.822-6.036 8.962-7.8 8.931-8.338-.039-.667-.035-1.147-21.386-14.13A2.841 2.841 0 0022.824 0zm13.893 22.855c-.027.023-.178-.031-.426-.14a24.315 24.315 0 00-1.558-.446v2.682l1.1-.116a1.89 1.89 0 011.283.407 2.342 2.342 0 01.593 1.8 3.112 3.112 0 01-.1.775 9.893 9.893 0 00-9.183 13.381 8.108 8.108 0 01-5.594 2.493h-.012c-4.547 0-8.575-4.462-11.97-13.257l-.217-.57-.6-.062a2.643 2.643 0 01-2.089-2.76 2.354 2.354 0 01.581-1.795 1.9 1.9 0 011.295-.415l1.1.116V22.27c-.733.19-1.279.353-1.6.457-.221.1-.353.151-.38.128v.07a3.616 3.616 0 00-1.725.841 4.2 4.2 0 00-1.252 3.279A4.659 4.659 0 009.2 31.666c3.687 9.3 8.272 14.013 13.626 14.013a9.76 9.76 0 006.503-2.648A9.916 9.916 0 1039.6 28.003a4.861 4.861 0 00.093-.957 4.2 4.2 0 00-1.252-3.279 3.616 3.616 0 00-1.725-.841zm-25.8-.585a48.994 48.994 0 0111.908-1.4 48.771 48.771 0 0111.908 1.4v-5.105a30.821 30.821 0 00-11.908-2.248 30.594 30.594 0 00-11.908 2.241zm26.793 7.532a7.939 7.939 0 11-7.939 7.939 7.924 7.924 0 017.939-7.939zM2.977 32.779a.964.964 0 01.992.961 6.436 6.436 0 01-.849 2.031c-.07.116-.07.1-.14.206-.07-.112-.074-.1-.147-.217a6.761 6.761 0 01-.849-2.02.964.964 0 01.993-.961zm33.74 0v3.969h-3.969v1.983h3.969V42.7H38.7v-3.969h3.969v-1.983H38.7v-3.969z"/></svg>