<?xml version="1.0" encoding="utf-8"?><svg xmlns="http://www.w3.org/2000/svg" width="56" height="60" viewBox="0 0 56 60"><path d="M54.255 6.635h-4.74V1.786A1.766 1.766 0 0047.77 0H1.745A1.766 1.766 0 000 1.786v49.793a1.766 1.766 0 001.745 1.786h4.74v4.849A1.766 1.766 0 008.23 60h46.025A1.766 1.766 0 0056 58.214V8.421a1.765 1.765 0 00-1.745-1.786zm-47.259 19.9a1.806 1.806 0 00-.511 1.262v22H3.49V3.571h42.531v3.064H27.167a1.725 1.725 0 00-1.234.523zm18.425-13.803v13.28H12.443zm27.088 43.7H9.975V29.583h17.192a1.766 1.766 0 001.746-1.783V10.219v-.013h23.6v46.223z"/></svg>