<?xml version="1.0" encoding="utf-8"?><svg xmlns="http://www.w3.org/2000/svg" width="80" height="80" viewBox="0 0 80 80"><circle cx="40" cy="40" r="40" fill="#4d76a1"/><path d="M38.489 57.544h3.14a2.648 2.648 0 001.432-.626 2.3 2.3 0 00.431-1.379s-.061-4.213 1.894-4.833c1.927-.611 4.4 4.071 7.026 5.872a4.972 4.972 0 003.491 1.064l7.014-.1s3.669-.226 1.929-3.111c-.143-.236-1.013-2.134-5.215-6.034-4.4-4.082-3.809-3.422 1.489-10.483 3.227-4.3 4.516-6.926 4.114-8.05-.384-1.071-2.757-.788-2.757-.788l-7.9.049a1.793 1.793 0 00-1.02.18 2.213 2.213 0 00-.7.848 45.727 45.727 0 01-2.917 6.158c-3.517 5.972-4.923 6.287-5.5 5.916-1.337-.864-1-3.472-1-5.324 0-5.787.878-8.2-1.709-8.825a13.485 13.485 0 00-3.686-.367c-2.818-.029-5.2.009-6.554.67-.9.44-1.591 1.42-1.169 1.477a3.544 3.544 0 012.331 1.172c.809 1.1.781 3.574.781 3.574s.465 6.812-1.086 7.659c-1.065.58-2.525-.6-5.66-6.022a50.363 50.363 0 01-2.819-5.843 2.347 2.347 0 00-.651-.88 3.273 3.273 0 00-1.214-.49l-7.5.049s-1.127.031-1.54.521c-.368.436-.029 1.337-.029 1.337s5.874 13.748 12.527 20.675c6.1 6.351 13.027 5.934 13.027 5.934z" fill="#fff" fill-rule="evenodd"/></svg>