<?xml version="1.0" encoding="utf-8"?><svg xmlns="http://www.w3.org/2000/svg" width="80" height="80" viewBox="0 0 80 80"><circle cx="40" cy="40" r="40" fill="#d42428"/><path d="M68.283 11.711a40.002 40.002 0 11-56.572 56.572z" fill="#cc202d"/><path d="M79.195 48.012l-19.8-19.8-23.349 2.658-14.123 21.865 26.391 26.39a40.046 40.046 0 0030.881-31.113z" fill="#ba202e"/><path d="M60.932 32.281a6.069 6.069 0 00-6.068-6.071H26.397a6.069 6.069 0 00-6.067 6.071v16.28a6.069 6.069 0 006.067 6.071h28.468a6.069 6.069 0 006.068-6.071v-16.28zM36.569 47.289V31.998l11.6 7.646z" fill="#fff"/></svg>