<?xml version="1.0" encoding="utf-8"?><svg viewBox="0 0 100 80.537" xmlns="http://www.w3.org/2000/svg" xmlns:xlink="http://www.w3.org/1999/xlink"><style>:root>svg{display:none}:root>svg:target{display:block}</style><svg viewBox="0 0 23.089 9.148" id="arrow" xmlns="http://www.w3.org/2000/svg"><path d="M.547.842l10.886 7.115L22.55.842" fill="none" stroke="#000" stroke-width="2"/></svg><svg viewBox="0 0 100 80" id="bag" xmlns="http://www.w3.org/2000/svg"><path d="M38.041 0a6.029 6.029 0 00-5.992 6v6H6.082A6.029 6.029 0 00.09 18v11.373a2 2 0 000 1.187V74a6.029 6.029 0 005.992 6h87.886a6.029 6.029 0 005.992-6V30.373a2.089 2.089 0 000-.813V18a6.029 6.029 0 00-5.992-6H68.002V6a6.029 6.029 0 00-5.992-6zm0 4h23.968a2 2 0 012 2v6H36.043V6a2 2 0 011.998-2zM6.082 16h87.886a2 2 0 012 2v10h-7.99a4 4 0 00-3.995-4h-7.99a4 4 0 00-3.995 4H28.053a4 4 0 00-3.995-4h-7.99a4 4 0 00-3.995 4H4.085V18a2 2 0 012-2zm9.987 12h7.99v1.06a2 2 0 000 1.753V32h-7.99v-1.627a2.089 2.089 0 000-.813zm59.922 0h7.99v1.06a2 2 0 000 1.753V32h-7.99v-1.627a2.089 2.089 0 000-.813zM4.085 32h7.99a4 4 0 003.995 4h7.99a4 4 0 003.995-4h43.941a4 4 0 003.995 4h7.99a4 4 0 003.995-4h7.99v42a2 2 0 01-2 2H6.082a2 2 0 01-2-2z"/></svg><svg viewBox="0 0 77.212 77.242" id="ball-point-pen" xmlns="http://www.w3.org/2000/svg"><path d="M71.813.014a11.488 11.488 0 00-2.616.632 39.261 39.261 0 00-6.921 3.455l-.945-1a1.632 1.632 0 00-.732-.419 13.775 13.775 0 00-1.624-.256 16.167 16.167 0 00-4.249.106c-3.449.537-8.05 2.286-12.735 6.988a54.434 54.434 0 00-9.012 11.617c-1.783 3.1-2.762 5.294-3.723 6.345a3.159 3.159 0 01-3.511.783 1.68 1.68 0 00-1.314 3.092s4.3 1.677 7.268-1.571c1.621-1.767 2.5-4.042 4.193-6.971a50.269 50.269 0 018.436-10.9c4.221-4.21 8.095-5.641 10.9-6.077a8.755 8.755 0 014.087.1l.157.162a262.557 262.557 0 00-22.359 19.91C24.426 38.695 9.964 56.042 9.964 56.042a1.677 1.677 0 00-.369 1.118 48.972 48.972 0 00-5.87 11.266 22.261 22.261 0 00-.99 3.706l-2.236 2.2a1.706 1.706 0 002.414 2.411l2.2-2.236a22.26 22.26 0 003.723-1 48.44 48.44 0 0011.321-5.87 1.677 1.677 0 001.045-.369S38.531 52.81 51.233 40.126a251.123 251.123 0 0021.18-24.039 1.745 1.745 0 00.257-.313l.056-.056.05-.05a1.487 1.487 0 00.157-.313 40.872 40.872 0 003.673-7.268 9.666 9.666 0 00.607-3.511 4.875 4.875 0 00-1.31-3.25A4.875 4.875 0 0072.649.018a6 6 0 00-.839 0zm.738 3.354a1.263 1.263 0 011.308 1.308 6.663 6.663 0 01-.419 2.236 33.542 33.542 0 01-2.516 5.031l-5.658-5.641a33.018 33.018 0 015.031-2.516 6.613 6.613 0 012.252-.417zM62.38 8.193l6.658 6.709A235.913 235.913 0 0148.857 37.75c-11.483 11.46-26.432 24.056-28.875 26.1l-6.608-6.6c2.046-2.449 14.641-17.4 26.1-28.88a230.269 230.269 0 0122.9-20.176zM11.54 59.346l6.345 6.34a46.4 46.4 0 01-9.962 5.14 8.543 8.543 0 01-2.041.52 8.542 8.542 0 01.52-2.04 46.255 46.255 0 015.138-9.957z"/></svg><svg viewBox="0 0 76 80" id="calendar-plus" xmlns="http://www.w3.org/2000/svg"><path d="M57.765.021a3.325 3.325 0 012.407 3.157v3.244h9.612a2.971 2.971 0 012.176.878 3.035 3.035 0 01.88 2.194V49.7a16.25 16.25 0 00-2.111-1.563 1.894 1.894 0 01-1.056-2.027c.037-7.083 0-14.166 0-21.249v-.8H3.199v49.563h39.866a1.085 1.085 0 011.056.587c.554.875 1.182 1.7 1.842 2.624H3.732c-1.858 0-3.13-.635-3.732-2.453V8.854A3.357 3.357 0 013.695 6.4c2.739.08 5.479 0 8.218 0h.728V3.152A3.3 3.3 0 0115.048 0h4.687a.691.691 0 00.2.133 3.155 3.155 0 012.26 3.367v2.89h28.5V3.2a3.306 3.306 0 012.41-3.157zM69.636 9.67h-9.464v3.243a3.131 3.131 0 01-3.061 3.109h-3.357a3.077 3.077 0 01-2.951-2.261 5.587 5.587 0 01-.127-1.328V9.67h-28.5v3.23a3.12 3.12 0 01-3.1 3.136h-3.1a3.1 3.1 0 01-2.4-.915 3.165 3.165 0 01-.906-2.423V9.67H3.209v11.12h66.427zM18.96 3.269h-3.083v9.5h3.093zm34.905 9.51h3.095V3.253h-3.09z"/><path d="M58.486 80l-1.725-.349a15.878 15.878 0 1119.128-17.535 2.116 2.116 0 00.111.355v3.3a1.588 1.588 0 00-.106.286 15.878 15.878 0 01-12.523 13.624c-.529.116-1.059.212-1.588.318zM47.451 64.122a12.631 12.631 0 100-.021z"/><path d="M12.64 67.091V30.64h47.582v14.248H49.107c0 1.059.032 2.117 0 3.107a1.371 1.371 0 01-.4.831c-.873.82-1.789 1.588-2.742 2.424v-6.314h-7.893v7.886h6.658c-.582 1.059-1.111 2.032-1.678 2.985a.736.736 0 01-.529.191H38.05v7.939h3.1l.3 3.176zm3.176-33.286v7.881h7.86v-7.881zM26.93 41.67h7.876v-7.833H26.93zm18.964 0v-7.84h-7.822v7.87zm11.156-7.828h-7.87v7.823h7.87zM15.837 44.957v7.828h7.854V44.93zm11.115 0v7.828h7.838v-7.87zm-3.244 11.1h-7.887v7.844h7.886zm3.25-.032v7.886h7.844V56.03zM61.753 62.497c.27 0 .5.037.725.037h5.335a1.593 1.593 0 11-.011 3.176h-6.039c0 .265-.037.487-.042.709v5.462a1.556 1.556 0 01-2.165 1.535 1.434 1.434 0 01-1.006-1.519v-6.15c-.281 0-.5-.032-.725-.037H52.49c-1.127 0-1.768-.6-1.752-1.625s.651-1.545 1.762-1.551h6.013c0-.291.032-.529.037-.741v-5.335a1.527 1.527 0 011.588-1.736 1.505 1.505 0 011.588 1.715v5.335c-.001.227.02.455.027.725z"/></svg><svg viewBox="0 0 80.537 80.537" id="development-skills" xmlns="http://www.w3.org/2000/svg"><path d="M80.537 21.104v8.446c-9.2 2.553-9.2 2.553-4.356 10.982l-6.013 5.857c-8.4-4.8-8.4-4.8-10.872 4.466H50.85c-2.563-9.005-2.563-9.005-10.644-4.576l-5.848-6.351c4.695-8.035 4.695-8.035-4.576-10.159v-8.411c9-3.249 9-3.249 4.53-10.589l6.214-6.031c8.017 3.99 8.017 3.99 10.241-4.741h8.456c2.691 9.207 2.691 9.207 10.772 4.466l5.967 6.077c-4.568 8.102-4.568 8.102 4.575 10.564zm-38.173-4.713c-1.83 3.139-1.83 7.441-6.772 7.239-.778 0-1.6 1.236-2.4 1.894.76.567 1.437 1.409 2.288 1.638 5.967 1.62 7.633 5.546 4.576 10.708-.485.815-.284 2.032-.4 3.066a7.829 7.829 0 002.746-.357c5.647-3.139 9.216-1.638 10.982 4.576.22.805 1.144 1.419 1.739 2.123.613-.7 1.538-1.309 1.775-2.123 1.83-6.315 5.363-7.816 10.982-4.64a8.136 8.136 0 002.746.43c0-.915.3-1.977-.073-2.681-3.313-6.269-2.151-9.152 4.576-11.184.778-.238 1.327-1.236 1.986-1.885-.595-.54-1.117-1.345-1.83-1.574-6.836-2.178-8.109-5.079-4.869-11.046.4-.741.183-1.83.256-2.746a7.287 7.287 0 00-2.746.247c-5.876 3.258-9.317 1.885-10.982-4.384-.229-.842-1.089-1.51-1.656-2.261-.632.659-1.62 1.217-1.83 2-1.931 6.562-4.9 7.761-11.211 4.484a6.818 6.818 0 00-2.361-.256c0 .915-.375 1.959 0 2.691a31.276 31.276 0 002.478 4.041z"/><path d="M3.368 44.174a6.414 6.414 0 001.382.906c6.406 1.522 7.386 6.342 7.99 11.878 1.272 11.606 1.446 11.588 13.023 11.733h3.286v10.211c-2.993.516-2.993.516-3.8-6.125-.247-.127-.513-.381-.76-.362-13.133.571-14.643-5.164-15.366-14.179-.366-4.421-.961-8.4-6.242-10.165-2.965-.988-3.661-3.869-2-6.795a47.285 47.285 0 002.462-4.322c2-4.8 4.356-9.531 5.692-14.5 2.874-10.754 8.786-18.392 20-21.291a14.544 14.544 0 014.045-.48c.522 0 1.217.788 1.464 1.377.137.326-.348 1.142-.769 1.431a5.47 5.47 0 01-2.1.788c-11.11 2.138-16.693 9.314-19.219 19.8-1.144 4.72-3.4 9.187-5.354 13.681a64.389 64.389 0 01-3.734 6.414zM62.213 80.537c-1.7-1.382-3.331-2.077-3.35-2.819-.275-8.63-.842-17.389 4.32-25.049.787-1.181 2.315-1.83 3.505-2.746-.146 1.528.183 3.359-.531 4.576-4.219 6.9-3.862 14.487-3.771 22.065.001.69-.057 1.438-.173 3.973zM55.234 34.339a9.152 9.152 0 118.969-9.152 9.152 9.152 0 01-8.969 9.152zm-5.674-9.152c.4 3.322 2.151 5.491 5.574 5.436a4.979 4.979 0 005.317-5.125c.137-3.4-1.83-5.537-5.235-5.656s-5.217 1.981-5.656 5.349z"/></svg><svg viewBox="0 0 80 80" id="facebook" xmlns="http://www.w3.org/2000/svg"><circle cx="40" cy="40" r="40" fill="#3b5998"/><path d="M50.343 41.489h-7.316v26.8H31.943v-26.8h-5.272V32.07h5.272v-6.1c0-4.359 2.071-11.184 11.183-11.184l8.211.034v9.147h-5.958a2.256 2.256 0 00-2.351 2.568v5.544h8.284z" fill="#fff"/></svg><svg viewBox="0 0 97 80" id="group" xmlns="http://www.w3.org/2000/svg"><path d="M30.823 21.853a26.976 26.976 0 005.007 14.784c3.56 5.073 8.061 7.867 12.673 7.867s9.113-2.794 12.673-7.867a26.976 26.976 0 005.007-14.784 17.68 17.68 0 10-35.36 0zm17.68-14.61a14.626 14.626 0 0114.61 14.61 24.15 24.15 0 01-4.45 13.02c-2.925 4.17-6.628 6.551-10.159 6.551s-7.231-2.392-10.16-6.551a24.15 24.15 0 01-4.45-13.019 14.628 14.628 0 0114.609-14.61z"/><path d="M61.61 39.428a1.516 1.516 0 00-1.733.3c-3.411 3.425-7.344 5.234-11.375 5.234s-7.964-1.81-11.375-5.234a1.514 1.514 0 00-1.733-.3 30.742 30.742 0 00-17.417 27.754v.025a1.546 1.546 0 00.5 1.138 44.5 44.5 0 0060.049 0 1.538 1.538 0 00.5-1.138v-.025A30.736 30.736 0 0061.61 39.428zm-13.107 37.5a41.4 41.4 0 01-27.467-10.4A27.672 27.672 0 0135.774 42.67a17.789 17.789 0 0025.46 0 27.674 27.674 0 0114.74 23.858 41.407 41.407 0 01-27.471 10.4z"/><path d="M92.756 40.929a26.839 26.839 0 00-11.027-9.7 1.537 1.537 0 00-1.744.3 13.858 13.858 0 01-9.754 4.467 12.212 12.212 0 01-5.5-1.343 1.536 1.536 0 10-1.376 2.747 15.271 15.271 0 006.868 1.666 16.511 16.511 0 0011.113-4.594 23.7 23.7 0 0112.585 20.286 36.275 36.275 0 01-13.083 7.3 1.535 1.535 0 00.45 3 1.52 1.52 0 00.452-.07 39.3 39.3 0 0014.755-8.411 1.529 1.529 0 00.5-1.136v-.027a26.683 26.683 0 00-4.243-14.485zM26.712 35.2a10.776 10.776 0 004.813-1.175 1.536 1.536 0 00-1.366-2.751 7.7 7.7 0 01-3.447.856c-2.976 0-6.106-2.029-8.6-5.568a20.642 20.642 0 01-3.783-11.109 12.389 12.389 0 0120.982-8.917 1.535 1.535 0 002.131-2.211 15.459 15.459 0 00-26.183 11.128 23.567 23.567 0 004.356 12.872c3.103 4.433 7.044 6.875 11.097 6.875z"/><path d="M12.487 60.666a35.889 35.889 0 01-9.416-5.936 23.641 23.641 0 0112.548-20.227A16.458 16.458 0 0026.7 39.08a15.24 15.24 0 006.923-1.695 1.537 1.537 0 00-1.376-2.749 12.194 12.194 0 01-5.539 1.365 13.813 13.813 0 01-9.723-4.454 1.537 1.537 0 00-1.744-.3A26.714 26.714 0 000 55.389v.02a1.533 1.533 0 00.5 1.134 38.973 38.973 0 0010.777 6.937 1.561 1.561 0 00.614.125 1.535 1.535 0 00.614-2.946zM14.303 62.646a1.534 1.534 0 102.835 0 1.545 1.545 0 00-2.835 0z"/><path d="M17.134 62.677c.04.09-.037-.093 0 0zM61.697 6.536a12.389 12.389 0 0120.988 8.917 20.6 20.6 0 01-3.8 11.107c-2.481 3.539-5.613 5.568-8.6 5.568a7.705 7.705 0 01-3.447-.856 1.536 1.536 0 00-1.367 2.751 10.775 10.775 0 004.815 1.175c4.049 0 7.983-2.44 11.1-6.874a23.488 23.488 0 004.358-12.872A15.459 15.459 0 0059.56 4.324a1.536 1.536 0 102.133 2.211z"/></svg><svg viewBox="0 0 80 80" id="instagram" xmlns="http://www.w3.org/2000/svg"><path d="M51.917 21.284H28.078a6.91 6.91 0 00-6.9 6.9V52.03a6.911 6.911 0 006.9 6.9h23.839a6.911 6.911 0 006.9-6.9V28.186a6.91 6.91 0 00-6.9-6.902zM40 52.504a12.394 12.394 0 1112.394-12.4A12.408 12.408 0 0140 52.504zm12.793-22.227a2.932 2.932 0 112.932-2.932 2.936 2.936 0 01-2.932 2.932z" fill="#6a453b"/><path d="M40 32.952a7.157 7.157 0 107.156 7.155A7.166 7.166 0 0040 32.952z" fill="#6a453b"/><path d="M40 0a40 40 0 1040 40A40 40 0 0040 0zm24.061 52.03a12.152 12.152 0 01-12.139 12.139H28.078A12.153 12.153 0 0115.939 52.03V28.186a12.153 12.153 0 0112.139-12.139h23.844a12.153 12.153 0 0112.139 12.139z" fill="#6a453b"/></svg><svg viewBox="0 0 90.14 34" id="logo" xmlns="http://www.w3.org/2000/svg"><g fill="#f2ba02"><path d="M28.578 4.607c-2.718 8.306-9.424 11.27-17.19 12.835-.5.1-.989.286-1.481.431l.063.446c1.056 0 2.111-.051 3.17.027.374.027.727.374 1.089.573-.335.181-.669.51-1.007.516q-4.071.063-8.142 0c-.341 0-.679-.329-1.019-.5a3.375 3.375 0 011.083-.585 10.667 10.667 0 012.28-.015 1.459 1.459 0 001.7-1.628 10.988 10.988 0 012.883-8.248c2.548-2.675 5.866-3.812 9.379-4.445.971-.175 1.538-.3 2.928-.47a16.946 16.946 0 014.49-.015 9.35 9.35 0 01-.226 1.083zM10.333 15.033c.181-.069.3-.078.347-.139.256-.28.495-.576.739-.866A27.274 27.274 0 0123.985 5.47a3.668 3.668 0 011.366.118 5.932 5.932 0 01-1.022.932c-2.648 1.459-5.469 2.665-7.941 4.366-1.981 1.372-3.546 3.341-5.3 5.042l.3.344a26.629 26.629 0 009.819-3.723 20.1 20.1 0 01-2.6-.4 4.027 4.027 0 01-1.119-.817 11.334 11.334 0 011.372-.241c1.508-.081 3.317.389 4.424-.3 2.111-1.3 3.266-3.592 3.978-6.2-4.4.157-8.537.6-12.235 2.871a9.381 9.381 0 00-4.694 7.571zM8.999 32.026c-1.713 0-3.423.015-5.127 0-2.455-.03-3.818-1.363-3.851-3.77a129.192 129.192 0 010-4.7 3.387 3.387 0 013.522-3.507q5.627-.063 11.258 0a3.354 3.354 0 013.474 3.4c.06 1.707.054 3.42 0 5.127a3.369 3.369 0 01-3.438 3.438c-1.945.054-3.9 0-5.841 0zm.1-1.143c1.852 0 3.7.03 5.552 0a2.283 2.283 0 002.494-2.479 102.28 102.28 0 000-4.7 2.288 2.288 0 00-2.452-2.515q-5.567-.051-11.107 0a2.246 2.246 0 00-2.413 2.413 94.416 94.416 0 000 4.7c.027 1.749.878 2.572 2.666 2.594s3.5-.006 5.259-.009z"/></g><g transform="translate(40.191 1)" fill="#fff"><text transform="translate(-.05 12)" font-size="14" font-family="BloggerSans-Bold, Blogger Sans" font-weight="700" letter-spacing=".06em"><tspan x="0" y="0">PISHEM</tspan></text><text transform="translate(16.95 30)" font-size="12" font-family="BloggerSans, Blogger Sans" letter-spacing=".06em"><tspan x="0" y="0">pro</tspan></text><circle cx="1.5" cy="1.5" r="1.5" transform="translate(23.95 16)"/></g></svg><svg viewBox="0 0 52 60" id="meditation" xmlns="http://www.w3.org/2000/svg"><path d="M51.425 44.601l-2.06-3.355a1.116 1.116 0 00-1.567-.363 1.2 1.2 0 00-.351 1.617l2.061 3.355a1.558 1.558 0 01-.209 1.887 1.437 1.437 0 01-1.161.43 1.457 1.457 0 01-1.068-.637l-8.884-13.034-3.521-8.667v-1.02a1.136 1.136 0 10-2.272 0v15.617H19.6V24.814a1.136 1.136 0 10-2.272 0v1.03l-3.513 8.657-8.883 13.032a1.456 1.456 0 01-1.068.636 1.437 1.437 0 01-1.161-.43 1.558 1.558 0 01-.209-1.887l7.893-12.851a1.18 1.18 0 00.113-.255l3.38-10.356a8.7 8.7 0 018.226-6.1h7.788a8.7 8.7 0 018.226 6.1l3.38 10.356a1.178 1.178 0 00.117.254l1.542 2.512a1.127 1.127 0 00.961.545 1.106 1.106 0 00.607-.182 1.194 1.194 0 00.351-1.617l-1.469-2.392-3.336-10.224a11.021 11.021 0 00-9.122-7.622 7.474 7.474 0 002-5.108V7.377a7.153 7.153 0 10-14.3 0v1.536a7.472 7.472 0 002 5.108 11.022 11.022 0 00-9.123 7.622L8.4 31.865.575 44.601a3.971 3.971 0 00.532 4.81 3.687 3.687 0 002.048 1.065 7.245 7.245 0 00.065 5.112 6.85 6.85 0 006.342 4.413 6.618 6.618 0 001.775-.243L26 55.685l14.663 4.072a6.616 6.616 0 001.775.244 6.851 6.851 0 006.342-4.413 7.247 7.247 0 00.065-5.112 3.69 3.69 0 002.049-1.065 3.97 3.97 0 00.532-4.81zM21.122 7.377a4.88 4.88 0 119.756 0v1.536a4.88 4.88 0 11-9.756 0zm15.016 28.146a1.168 1.168 0 00.118.221l6.406 9.4-8-4.208v-9.04zm-20.395.221a1.166 1.166 0 00.118-.221l1.469-3.615v9.031l-7.993 4.205zm30.93 18.966a4.537 4.537 0 01-5.42 2.785l-11.49-3.194a4.089 4.089 0 001.494-3.171v-.131l7.1 1.73a1.1 1.1 0 00.262.032 1.144 1.144 0 001.1-.9 1.174 1.174 0 00-.844-1.41l-8.494-2.07a1.1 1.1 0 00-.2-.029 4.019 4.019 0 00-.407-.385 3.8 3.8 0 00-3.327-.763L13.124 50.45a1.174 1.174 0 00-.844 1.41 1.135 1.135 0 001.367.871l13.322-3.246a1.592 1.592 0 011.4.32 1.715 1.715 0 01-.592 2.962l-2.022.562c-.024.005-.047.012-.07.019l-14.939 4.146a4.536 4.536 0 01-5.42-2.784 4.752 4.752 0 012.159-5.961l11.357-5.974h14.316l11.357 5.974a4.751 4.751 0 012.159 5.961zm0 0"/><path d="M45.235 39.107a1.152 1.152 0 001.63 0l.043-.042a1.153 1.153 0 00-1.628-1.632l-.043.043a1.153 1.153 0 00-.002 1.631zm0 0"/></svg><svg viewBox="0 0 15 15" id="pen" xmlns="http://www.w3.org/2000/svg"><path d="M.388 15.005c1.055-1.037 1.94-1.9 2.818-2.769.987-.98 1.95-1.984 2.967-2.938a2.378 2.378 0 011-.509c.569-.154.938-.489.781-1.035a1.354 1.354 0 00-.832-.8c-.555-.134-.866.277-1.011.829a2.336 2.336 0 01-.472 1.011c-1.657 1.7-3.347 3.373-5.028 5.051-.174.174-.365.332-.615.564 1.051-3.505 2.072-6.9 3.113-10.358 1.829-.049 3.759-.066 5.351-1.174l3.613 3.61c-1.127 1.594-1.126 3.528-1.181 5.351zM15 5.13l-2.276 1.509-4.275-4.283L10.016 0z" fill="#f2ba02"/></svg><svg viewBox="0 0 80 80" id="question" xmlns="http://www.w3.org/2000/svg"><path d="M1.676 78.327a5.663 5.663 0 004.013 1.674 5.743 5.743 0 001.875-.313l15.99-5.493a39.243 39.243 0 0017.284 4.049h.063A39.111 39.111 0 105.814 56.462l-5.5 15.985a5.659 5.659 0 001.361 5.88zm3.126-4.339l5.828-16.937a2.375 2.375 0 00-.147-1.875 34.377 34.377 0 1114.355 14.355 2.367 2.367 0 00-1.875-.145L6.014 75.2a.955.955 0 01-1.21-1.212z"/><path d="M38.749 56.647a2.393 2.393 0 102.393 2.393 2.423 2.423 0 00-2.393-2.393zM38.752 19.818a11.919 11.919 0 00-11.9 11.907 2.393 2.393 0 104.785 0 7.12 7.12 0 117.12 7.12 2.393 2.393 0 00-2.393 2.393v9.759a2.393 2.393 0 004.787 0v-7.609a11.907 11.907 0 00-2.393-23.57z"/></svg><svg viewBox="0 0 59.118 46.198" id="quote-left" xmlns="http://www.w3.org/2000/svg"><g fill="#e7e5e5"><path d="M25.667 46.195H.034V36.52c0-6.341-.1-12.688.039-19.028C.299 7.172 9.342-1.02 19.23.16v8.263c-6.05 1.684-8 4.773-7.379 12.03h13.81zM52.797.014v8.5c-6.005 1.464-8.147 4.876-7.334 11.907h13.655v25.692h-25.4c0-10.25-.535-20.46.161-30.587C34.523 6.129 42.967-.34 52.797.014z"/></g></svg><svg viewBox="0 0 59.066 60" id="rich" xmlns="http://www.w3.org/2000/svg"><path d="M16.12 10.029a2.9 2.9 0 002.73 1.972h7.431a2.9 2.9 0 002.73-1.97 13.675 13.675 0 012.553-4.447 2.99 2.99 0 001.014-2.842A2.846 2.846 0 0030.65.56c-3-1-5.663-.66-7.7.967a.959.959 0 01-1.22 0C19.697-.099 17.034-.434 14.034.561a2.846 2.846 0 00-1.929 2.182 2.99 2.99 0 001.014 2.842 15.747 15.747 0 013.001 4.444zm-2.051-6.9a.85.85 0 01.594-.664 8.3 8.3 0 012.599-.464 5.01 5.01 0 013.221 1.091 2.959 2.959 0 003.718 0c1.5-1.2 3.458-1.412 5.82-.63a.85.85 0 01.593.664.974.974 0 01-.343.935c-1.528 1.294-2.894 4.576-3.15 5.319a.9.9 0 01-.839.622h-7.431a.9.9 0 01-.839-.622 17.286 17.286 0 00-3.6-5.319.972.972 0 01-.343-.937zM31.066 14.001a1 1 0 00-1-1 .977.977 0 00-.5.153.968.968 0 00-.5-.153h-12a1 1 0 000 2h12v1h-11a1 1 0 000 2h11.925a4.949 4.949 0 006.715-.293 1 1 0 10-1.414-1.414 3.069 3.069 0 01-4.226.014zM21.066 26.001c-6.411 0-14 8.131-14 15a1 1 0 002 0c0-5.71 6.729-13 12-13a1 1 0 000-2z"/><path d="M49.066 32.001a31.689 31.689 0 00-3.5.2 19.791 19.791 0 00-5.365-6.3l-7.199-4.9a8.889 8.889 0 00-5.246-2h-7.777a8.632 8.632 0 00-5.3 1.822l-7.078 5.155A19.6 19.6 0 002.05 50.146c1.514 2.985 4.043 6.592 7.5 6.826.271.018.545.028.821.028h19.463a7.978 7.978 0 0013.07-.869 21.419 21.419 0 006.162.87c4.809 0 10-1.529 10-4v-5.5h-.079a1.753 1.753 0 00.079-.5v-11.5c0-2.765-6.286-3.5-10-3.5zm7.924 3.491a.7.7 0 01-.067.065c-.039.031-.086.064-.139.1s-.146.086-.233.13a4.211 4.211 0 01-.23.11c-.1.047-.229.094-.356.142a7.464 7.464 0 01-.804.258c-.132.037-.262.075-.408.111-.19.047-.4.09-.617.133-.161.033-.314.067-.488.1-.24.042-.508.078-.773.114-.181.025-.35.053-.543.075-.315.036-.662.061-1.008.086-.176.013-.336.031-.52.042a31.629 31.629 0 01-3.482 0c-.184-.01-.344-.028-.52-.042-.346-.026-.693-.051-1.008-.086-.193-.022-.362-.05-.543-.075-.265-.036-.533-.072-.773-.114-.174-.031-.327-.065-.488-.1-.213-.044-.427-.087-.617-.133-.146-.036-.275-.073-.408-.111-.169-.047-.336-.1-.483-.143-.116-.038-.219-.077-.321-.115-.127-.048-.251-.1-.356-.142a4.211 4.211 0 01-.463-.24 1.5 1.5 0 01-.139-.1.6.6 0 01-.062-.06c.012-.01.02-.02.034-.031a1.621 1.621 0 01.142-.1 3.159 3.159 0 01.3-.169c.065-.033.129-.065.205-.1s.17-.07.261-.106c.108-.042.226-.084.351-.126.09-.03.177-.061.277-.091.224-.068.469-.135.738-.2.124-.03.268-.057.4-.085.163-.035.33-.069.507-.1.195-.035.4-.068.616-.1a27.309 27.309 0 014.089-.288c4.726 0 7.373.973 7.929 1.489zm-15.249 8.225c.09.038.183.074.277.111.174.068.352.132.536.195.1.033.192.065.291.1.211.066.428.127.65.186.078.021.153.044.232.063.3.076.613.146.931.208.066.013.135.023.2.036q.383.072.775.131c.112.017.225.031.338.046.225.03.451.057.68.081l.36.035c.236.021.473.037.711.051.106.006.212.014.318.019.342.015.683.025 1.023.025s.681-.01 1.023-.025c.108-.005.216-.013.324-.019a25.89 25.89 0 001.068-.086q.337-.034.67-.08c.116-.015.232-.03.347-.047.258-.038.512-.082.763-.129.071-.013.143-.024.214-.038q.474-.094.926-.207c.084-.021.164-.045.247-.067a11.713 11.713 0 00.936-.283q.274-.093.534-.194a9.175 9.175 0 00.792-.349c.052-.026.111-.048.161-.074l.006 3.524c-.235.569-2.819 1.837-6.9 2.04-.366.013-.72.031-1.115.031a18.672 18.672 0 01-6.041-.932l-.019-.03a7.869 7.869 0 00-.378-.6c-.02-.029-.043-.056-.064-.085a7.765 7.765 0 00-.393-.51c-.042-.049-.087-.094-.13-.143a8.086 8.086 0 00-.379-.406c-.068-.067-.141-.127-.211-.192-.116-.106-.23-.212-.351-.311-.012-.01-.022-.021-.034-.03v-2.353c.051.027.112.05.164.076.173.078.341.157.518.232zM28.534 55.001H10.372c-.231 0-.461-.008-.688-.023-1.965-.133-4.043-2.17-5.851-5.735a17.59 17.59 0 014.974-21.671l7.078-5.157a6.655 6.655 0 014.093-1.414h7.777a7.013 7.013 0 014.079 1.621l7.2 4.894a17.694 17.694 0 014.445 5 9.39 9.39 0 00-3.331 1.243l-.069.048a3.26 3.26 0 00-.349.291c-.045.043-.085.087-.126.132a2.262 2.262 0 00-.217.269 1.947 1.947 0 00-.13.242 1.866 1.866 0 00-.1.223 1.713 1.713 0 00-.089.534v9.089a7.848 7.848 0 00-1.044-.337l-.141-.036a7.912 7.912 0 00-1.072-.178c-.041 0-.082 0-.123-.006a7.942 7.942 0 00-.62-.031c-.11 0-.216.012-.325.016-.085 0-.17.007-.255.013a8.059 8.059 0 00-1.05.138h-.02c-.027.006-.052.017-.079.023a7.644 7.644 0 00-.916.266c-.108.038-.216.076-.322.118a7.929 7.929 0 00-.866.4c-.1.057-.2.123-.305.185a7.787 7.787 0 00-.568.379c-.108.079-.217.156-.321.24a7.892 7.892 0 00-.671.609c-.093.094-.178.194-.266.293a7.93 7.93 0 00-.428.523c-.073.1-.15.191-.219.292a7.917 7.917 0 00-.478.8c-.056.108-.107.218-.159.329a7.848 7.848 0 00-.305.753c-.026.075-.058.146-.081.222a7.923 7.923 0 00-.238 1.012c-.008.044-.024.086-.031.13s-.008.112-.015.166a7.99 7.99 0 00-.063.714c0 .086-.012.171-.013.258 0 .037-.006.073-.006.11 0 .159.015.314.024.47a9.585 9.585 0 00.442 2.543zm7.536 3a6 6 0 01-6-5.929v-.233c0-.11.008-.219.017-.328.007-.092.018-.183.029-.274s.026-.185.042-.276a5.807 5.807 0 01.182-.766c.008-.027.02-.052.029-.078a5.851 5.851 0 01.3-.733l.033-.068a6.168 6.168 0 012.432-2.543l.011-.007a5.933 5.933 0 01.73-.345c.065-.026.131-.049.2-.072a5.607 5.607 0 01.681-.2c.032-.007.062-.018.094-.024a6.127 6.127 0 01.868-.108c.055 0 .11-.007.166-.008a5.984 5.984 0 01.879.033l.049.008a5.882 5.882 0 01.907.185h.013a6.33 6.33 0 011.681.779l.04.028c.035.024.067.051.1.075a6.033 6.033 0 01.478.38c.037.032.073.066.109.1a6.113 6.113 0 01.436.446l.042.046a5.984 5.984 0 01.812 1.218c.051.1.1.2.147.3.076.175.142.352.2.531 0 .013.01.026.014.039.058.181.1.365.145.55 0 .015.008.029.011.043.038.184.066.37.087.557 0 .017.006.032.008.049a6.007 6.007 0 01.032.616 6.072 6.072 0 01-.034.633c0 .031-.01.06-.014.091a5.69 5.69 0 01-.088.538c0 .02-.011.039-.015.059-.043.19-.094.378-.156.564l-.009.024q-.1.291-.228.574a6.011 6.011 0 01-5.464 3.526zm13-3a19.615 19.615 0 01-5.339-.706.013.013 0 000-.006 8.023 8.023 0 00.224-1c.013-.081.026-.161.037-.243a8.037 8.037 0 00.074-1.045c0-.259-.014-.516-.039-.771-.009-.092-.025-.181-.037-.272-.017-.129-.029-.259-.052-.386a28.78 28.78 0 005.128.429 22.551 22.551 0 008-1.259l.006 3.188c-.252.617-3.287 2.071-8.006 2.071zm0-12c-4.7 0-7.731-1.441-7.995-1.994v-3.261c.025.011.055.02.081.031.239.1.489.2.755.286l.043.014a12.974 12.974 0 001.145.308c.214.049.43.1.651.138a24.416 24.416 0 001.055.177l.233.035c.323.043.646.081.967.112l.241.021c.247.022.491.042.733.058l.31.019c.224.013.442.023.658.031l.271.01c.293.008.579.013.849.013s.555-.005.848-.013l.275-.01c.214-.008.431-.018.654-.031l.314-.019q.363-.024.734-.059l.238-.021c.322-.032.645-.069.968-.113l.236-.032q.369-.052.732-.117c.109-.019.215-.04.322-.06.221-.043.438-.089.653-.139.1-.023.2-.044.292-.068.3-.075.591-.155.868-.245l.04-.014c.261-.086.508-.181.743-.281.028-.012.061-.022.089-.034l.006 3.188c-.259.616-3.294 2.07-8.013 2.07z"/></svg><svg viewBox="0 0 58 60" id="strength" xmlns="http://www.w3.org/2000/svg"><path d="M35.431 57.852a73.538 73.538 0 01-30.441-10.3l-2.7-1.655a18.486 18.486 0 00.862-2.975c.067-.3.136-.592.207-.884.209-.845.441-2.223.709-3.817a48.734 48.734 0 011.3-6.3l5.933-15.693c.13-.342.248-.711.368-1.089a6.13 6.13 0 011.276-2.616 5.117 5.117 0 011.248-.766.821.821 0 00.145-.085l11.738-9.28a1.563 1.563 0 011.985.02l5.888 4.861a1.7 1.7 0 01.053 2.545l-3.756 3.391a1.577 1.577 0 01-2.2-.075 1.685 1.685 0 01-.464-1.338 1.668 1.668 0 01.71-1.218l.333-.23-1.1-1.7-.332.229a3.712 3.712 0 00-1.582 2.717 3.759 3.759 0 001.034 2.985 3.516 3.516 0 004.9.169l3.164-2.848.972 1.5-5.934 5.25-7.089-.915c.108-.523.232-1.044.376-1.559l-1.9-.569a24.736 24.736 0 00-.917 7.261c.03 1.32.166 2.634.3 3.906a39.686 39.686 0 01.292 4.336 14.628 14.628 0 01-4.3 10.691l1.302 1.539a14.914 14.914 0 004.113-6.64 2.667 2.667 0 011.053-.063 11.386 11.386 0 013.749 1.039 12.337 12.337 0 00-1.171 2.559l1.876.645a10.248 10.248 0 011.037-2.226c.024.016.05.029.072.045l.95-1.43a12.848 12.848 0 017.814-4.154c4.789-.741 9.242.954 11.64 4.413l1.612-1.19a12.134 12.134 0 00-3.772-3.5 10.9 10.9 0 0110.567-2.079l.65-1.931a12.894 12.894 0 00-13.146 3.061 15.1 15.1 0 00-7.84-.8 14.78 14.78 0 00-9.067 4.893 13.384 13.384 0 00-4.8-1.389 6.891 6.891 0 00-.693-.028 19.506 19.506 0 00.329-3.444 41.568 41.568 0 00-.3-4.568c-.128-1.23-.26-2.5-.287-3.736a22.591 22.591 0 01.147-3.065l7.594.979c.044 0 .085.006.126.006a.97.97 0 00.644-.246l6.934-6.133a1.044 1.044 0 00.18-1.342l-1.737-2.69a3.736 3.736 0 00-.893-4.655L29.3.813A3.5 3.5 0 0024.869.77L13.653 9.676l-.367.259a6.794 6.794 0 00-1.65 1.05 7.666 7.666 0 00-1.85 3.512c-.108.34-.215.675-.332.985L3.52 31.175a46.7 46.7 0 00-1.408 6.692c-.251 1.487-.486 2.893-.677 3.663-.075.3-.146.61-.216.917a12.427 12.427 0 01-1.088 3.33 1.041 1.041 0 00.351 1.39l3.49 2.139A75.587 75.587 0 0035.26 59.889c.793.07 1.793.11 2.934.11 5.695.001 14.881-1.028 19.237-4.735l-1.259-1.577c-4.498 3.829-15.732 4.601-20.741 4.165z"/></svg><svg viewBox="0 0 47.634 47.664" id="surface" xmlns="http://www.w3.org/2000/svg"><path d="M22.824 0a2.982 2.982 0 00-1.457.4C.035 13.37.039 13.854 0 14.521c-.016.279.516.861 1.969 2.179a.884.884 0 00-.016.2c0 3.039.008 10.54.012 12.188a1.985 1.985 0 00-.973 1.706 2.012 2.012 0 00.12.675A2.922 2.922 0 000 33.74a6 6 0 001.136 3.043 17.869 17.869 0 001.054 1.562.986.986 0 00.783.388 1 1 0 00.787-.38 18.013 18.013 0 001.058-1.547 6.007 6.007 0 001.136-3.066 2.922 2.922 0 00-1.113-2.272 2.012 2.012 0 00.12-.675 1.987 1.987 0 00-.946-1.69c0-1.411-.008-6.888-.012-10.606 1.33 1.178 2.368 2.1 4.927 4.357v-6.945s5.254-2.978 13.894-2.978 13.893 2.977 13.893 2.977v6.947c6.822-6.036 8.962-7.8 8.931-8.338-.039-.667-.035-1.147-21.386-14.13A2.841 2.841 0 0022.824 0zm13.893 22.855c-.027.023-.178-.031-.426-.14a24.315 24.315 0 00-1.558-.446v2.682l1.1-.116a1.89 1.89 0 011.283.407 2.342 2.342 0 01.593 1.8 3.112 3.112 0 01-.1.775 9.893 9.893 0 00-9.183 13.381 8.108 8.108 0 01-5.594 2.493h-.012c-4.547 0-8.575-4.462-11.97-13.257l-.217-.57-.6-.062a2.643 2.643 0 01-2.089-2.76 2.354 2.354 0 01.581-1.795 1.9 1.9 0 011.295-.415l1.1.116V22.27c-.733.19-1.279.353-1.6.457-.221.1-.353.151-.38.128v.07a3.616 3.616 0 00-1.725.841 4.2 4.2 0 00-1.252 3.279A4.659 4.659 0 009.2 31.666c3.687 9.3 8.272 14.013 13.626 14.013a9.76 9.76 0 006.503-2.648A9.916 9.916 0 1039.6 28.003a4.861 4.861 0 00.093-.957 4.2 4.2 0 00-1.252-3.279 3.616 3.616 0 00-1.725-.841zm-25.8-.585a48.994 48.994 0 0111.908-1.4 48.771 48.771 0 0111.908 1.4v-5.105a30.821 30.821 0 00-11.908-2.248 30.594 30.594 0 00-11.908 2.241zm26.793 7.532a7.939 7.939 0 11-7.939 7.939 7.924 7.924 0 017.939-7.939zM2.977 32.779a.964.964 0 01.992.961 6.436 6.436 0 01-.849 2.031c-.07.116-.07.1-.14.206-.07-.112-.074-.1-.147-.217a6.761 6.761 0 01-.849-2.02.964.964 0 01.993-.961zm33.74 0v3.969h-3.969v1.983h3.969V42.7H38.7v-3.969h3.969v-1.983H38.7v-3.969z"/></svg><svg viewBox="0 0 56 60" id="two-blank-documents" xmlns="http://www.w3.org/2000/svg"><path d="M54.255 6.635h-4.74V1.786A1.766 1.766 0 0047.77 0H1.745A1.766 1.766 0 000 1.786v49.793a1.766 1.766 0 001.745 1.786h4.74v4.849A1.766 1.766 0 008.23 60h46.025A1.766 1.766 0 0056 58.214V8.421a1.765 1.765 0 00-1.745-1.786zm-47.259 19.9a1.806 1.806 0 00-.511 1.262v22H3.49V3.571h42.531v3.064H27.167a1.725 1.725 0 00-1.234.523zm18.425-13.803v13.28H12.443zm27.088 43.7H9.975V29.583h17.192a1.766 1.766 0 001.746-1.783V10.219v-.013h23.6v46.223z"/></svg><svg viewBox="0 0 80 80" id="vk" xmlns="http://www.w3.org/2000/svg"><circle cx="40" cy="40" r="40" fill="#4d76a1"/><path d="M38.489 57.544h3.14a2.648 2.648 0 001.432-.626 2.3 2.3 0 00.431-1.379s-.061-4.213 1.894-4.833c1.927-.611 4.4 4.071 7.026 5.872a4.972 4.972 0 003.491 1.064l7.014-.1s3.669-.226 1.929-3.111c-.143-.236-1.013-2.134-5.215-6.034-4.4-4.082-3.809-3.422 1.489-10.483 3.227-4.3 4.516-6.926 4.114-8.05-.384-1.071-2.757-.788-2.757-.788l-7.9.049a1.793 1.793 0 00-1.02.18 2.213 2.213 0 00-.7.848 45.727 45.727 0 01-2.917 6.158c-3.517 5.972-4.923 6.287-5.5 5.916-1.337-.864-1-3.472-1-5.324 0-5.787.878-8.2-1.709-8.825a13.485 13.485 0 00-3.686-.367c-2.818-.029-5.2.009-6.554.67-.9.44-1.591 1.42-1.169 1.477a3.544 3.544 0 012.331 1.172c.809 1.1.781 3.574.781 3.574s.465 6.812-1.086 7.659c-1.065.58-2.525-.6-5.66-6.022a50.363 50.363 0 01-2.819-5.843 2.347 2.347 0 00-.651-.88 3.273 3.273 0 00-1.214-.49l-7.5.049s-1.127.031-1.54.521c-.368.436-.029 1.337-.029 1.337s5.874 13.748 12.527 20.675c6.1 6.351 13.027 5.934 13.027 5.934z" fill="#fff" fill-rule="evenodd"/></svg><svg viewBox="0 0 80 80" id="youtube" xmlns="http://www.w3.org/2000/svg"><circle cx="40" cy="40" r="40" fill="#d42428"/><path d="M68.283 11.711a40.002 40.002 0 11-56.572 56.572z" fill="#cc202d"/><path d="M79.195 48.012l-19.8-19.8-23.349 2.658-14.123 21.865 26.391 26.39a40.046 40.046 0 0030.881-31.113z" fill="#ba202e"/><path d="M60.932 32.281a6.069 6.069 0 00-6.068-6.071H26.397a6.069 6.069 0 00-6.067 6.071v16.28a6.069 6.069 0 006.067 6.071h28.468a6.069 6.069 0 006.068-6.071v-16.28zM36.569 47.289V31.998l11.6 7.646z" fill="#fff"/></svg></svg>